<svg xmlns="http://www.w3.org/2000/svg" viewBox="0 0 34 29" fill="none" xmlns="http://www.w3.org/2000/svg"><path fill-rule="evenodd" d="M33.452 18.175v1.497h-7.059V8.879h7.006v1.511h-5.13v2.981h4.433v1.483h-4.433v3.321h5.182zM.921.634h32.268v2.13H.921V.634zM4.712 8.73c1.202 0 2.156.297 2.862.893s1.132 1.452 1.275 2.568H7.012c-.208-1.3-.961-1.95-2.261-1.95-.84 0-1.48.302-1.917.909s-.664 1.492-.68 2.663v.828c0 1.165.246 2.07.739 2.715s1.174.966 2.049.966c.959 0 1.641-.217 2.046-.652v-2.112H4.765v-1.424h4.092v4.137c-.39.508-.931.895-1.623 1.157s-1.478.393-2.357.393c-.905 0-1.705-.206-2.402-.617s-1.235-.996-1.613-1.759-.575-1.655-.589-2.673v-.846c0-1.63.39-2.904 1.171-3.821S3.315 8.73 4.712 8.73zm8.642.149v10.794h-1.87V8.879h1.87zm1.796 0h2.055l2.713 8.444 2.743-8.444h2.062l-3.886 10.794H19.02L15.15 8.879zm18.039 19.71H.921v-2.13h32.268v2.13z" fill="url(#A)"/><defs><linearGradient id="A" x1="5.133" y1="24.496" x2="24.611" y2="1.375" gradientUnits="userSpaceOnUse"><stop stop-color="#ffc107"/><stop offset=".507" stop-color="#f44336"/><stop offset=".99" stop-color="#9c27b0"/></linearGradient></defs></svg>