<svg viewBox="0 0 34 29" fill="none" xmlns="http://www.w3.org/2000/svg">
<path fill-rule="evenodd" clip-rule="evenodd" d="M33.4515 18.1754V19.6727H26.3929V8.8787H33.3991V10.39H28.2694V13.3707H32.702V14.854H28.2694V18.1754H33.4515ZM0.920906 0.633789H33.1894V2.76359H0.920906V0.633789ZM4.71227 8.73019C5.91433 8.73019 6.86828 9.02721 7.57414 9.62299C8.28174 10.2188 8.70631 11.0749 8.84958 12.1913H7.01155C6.80364 10.8914 6.0506 10.2415 4.75071 10.2415C3.91032 10.2415 3.27085 10.5438 2.83406 11.15C2.39552 11.7545 2.17013 12.6421 2.15441 13.8127V14.6409C2.15441 15.8062 2.40076 16.7113 2.89346 17.356C3.38442 18.0007 4.06756 18.3222 4.9429 18.3222C5.90209 18.3222 6.58349 18.1055 6.98884 17.6705V15.5581H4.76469V14.1342H8.85656V18.2715C8.46694 18.7799 7.92532 19.1661 7.23344 19.4281C6.54156 19.6902 5.75533 19.8212 4.8765 19.8212C3.97147 19.8212 3.17126 19.6151 2.47414 19.2045C1.77702 18.7957 1.23889 18.2086 0.861502 17.4451C0.484113 16.6816 0.286682 15.7905 0.272705 14.7719V13.9263C0.272705 12.2962 0.662324 11.0225 1.44331 10.1052C2.2243 9.18795 3.31453 8.73019 4.71227 8.73019ZM13.3538 8.8787V19.6727H11.4843V8.8787H13.3538ZM15.1499 8.8787H17.2046L19.9179 17.3228L22.661 8.8787H24.7226L20.8369 19.6727H19.0199L15.1499 8.8787ZM33.1894 28.5886H0.920906V26.4588H33.1894V28.5886Z" fill="white"/>
</svg>
