<svg viewBox="0 0 33 33" fill="none" xmlns="http://www.w3.org/2000/svg">
<path d="M22.7964 0.558594H9.83287C4.5644 0.558594 0.278198 4.8448 0.278198 10.1133V23.0768C0.278198 28.3452 4.5644 32.6314 9.83287 32.6314H22.7964C28.0648 32.6314 32.351 28.3452 32.351 23.0768V10.1133C32.351 4.8448 28.0648 0.558594 22.7964 0.558594ZM29.1245 23.0768C29.1245 26.5717 26.2913 29.4049 22.7964 29.4049H9.83287C6.33796 29.4049 3.50473 26.5717 3.50473 23.0768V10.1133C3.50473 6.6183 6.33796 3.78512 9.83287 3.78512H22.7964C26.2913 3.78512 29.1245 6.6183 29.1245 10.1133V23.0768Z" fill="white"/>
<path d="M16.3146 8.2998C11.7406 8.2998 8.01941 12.021 8.01941 16.5949C8.01941 21.1688 11.7406 24.8901 16.3146 24.8901C20.8886 24.8901 24.6098 21.1689 24.6098 16.5949C24.6098 12.021 20.8886 8.2998 16.3146 8.2998ZM16.3146 21.6636C13.5152 21.6636 11.2459 19.3943 11.2459 16.595C11.2459 13.7956 13.5153 11.5263 16.3146 11.5263C19.114 11.5263 21.3832 13.7956 21.3832 16.595C21.3832 19.3943 19.1139 21.6636 16.3146 21.6636Z" fill="white"/>
<path d="M24.6259 10.3494C25.7237 10.3494 26.6136 9.45949 26.6136 8.36172C26.6136 7.26395 25.7237 6.37402 24.6259 6.37402C23.5281 6.37402 22.6382 7.26395 22.6382 8.36172C22.6382 9.45949 23.5281 10.3494 24.6259 10.3494Z" fill="white"/>
</svg>
