<svg xmlns="http://www.w3.org/2000/svg" viewBox="0 0 33 33" fill="none" xmlns="http://www.w3.org/2000/svg"><path d="M22.796.559H9.833a9.57 9.57 0 0 0-9.555 9.555v12.963a9.57 9.57 0 0 0 9.555 9.555h12.964a9.57 9.57 0 0 0 9.555-9.555V10.113A9.57 9.57 0 0 0 22.796.559zm6.328 22.518a6.33 6.33 0 0 1-6.328 6.328H9.833a6.33 6.33 0 0 1-6.328-6.328V10.113a6.33 6.33 0 0 1 6.328-6.328h12.964a6.33 6.33 0 0 1 6.328 6.328v12.963z" fill="url(#A)"/><path d="M16.315 8.3c-4.574 0-8.295 3.721-8.295 8.295s3.721 8.295 8.295 8.295 8.295-3.721 8.295-8.295S20.889 8.3 16.315 8.3zm0 13.364a5.07 5.07 0 0 1-5.069-5.069 5.07 5.07 0 0 1 5.069-5.069 5.07 5.07 0 0 1 5.069 5.069 5.07 5.07 0 0 1-5.069 5.069z" fill="url(#B)"/><path d="M24.626 10.349a1.99 1.99 0 0 0 1.988-1.988 1.99 1.99 0 0 0-1.988-1.988 1.99 1.99 0 0 0-1.988 1.988 1.99 1.99 0 0 0 1.988 1.988z" fill="url(#C)"/><defs><linearGradient id="A" x1="4.976" y1="27.936" x2="27.653" y2="5.257" gradientUnits="userSpaceOnUse"><stop stop-color="#ffc107"/><stop offset=".507" stop-color="#f44336"/><stop offset=".99" stop-color="#9c27b0"/></linearGradient><linearGradient id="B" x1="10.45" y1="22.462" x2="22.18" y2="10.73" gradientUnits="userSpaceOnUse"><stop stop-color="#ffc107"/><stop offset=".507" stop-color="#f44336"/><stop offset=".99" stop-color="#9c27b0"/></linearGradient><linearGradient id="C" x1="23.221" y1="9.767" x2="26.031" y2="6.956" gradientUnits="userSpaceOnUse"><stop stop-color="#ffc107"/><stop offset=".507" stop-color="#f44336"/><stop offset=".99" stop-color="#9c27b0"/></linearGradient></defs></svg>