<svg xmlns="http://www.w3.org/2000/svg" viewBox="0 0 34 34" fill="none" xmlns="http://www.w3.org/2000/svg"><path d="M17.005 25.963c-.068-.007-.123.006-.149-.018l-6.7-6.175c-1.349-1.336-2.131-3.027-1.97-5.023.157-1.978 1.353-3.532 3.198-4.138 1.967-.647 3.836-.142 5.163 1.392l.391.457c1.014-1.347 2.26-2.142 3.937-2.101 2.815.066 4.912 2.474 4.761 5.434-.09 1.766-.907 3.206-2.127 4.376l-5.486 4.929-1.017.868zm10.702-9.721h5.784v2.332c-.041.166-.099.33-.12.498-.732 6.516-5.511 12.19-11.832 13.989-1.049.299-2.14.455-3.213.678h-2.85c-.144-.039-.286-.096-.431-.112C8.384 32.86 2.771 28.11.961 21.666.677 20.654.524 19.605.312 18.573v-2.852c.041-.166.098-.33.118-.498A16.66 16.66 0 0 1 13.451.935C14.122.791 14.8.682 15.477.559h2.85c.925.19 1.86.341 2.772.581 2.066.542 3.939 1.504 5.749 2.831l2.123-2.286 3.073 9.216-9.183-3.058 2.606-2.468c-2.335-1.652-4.761-2.601-7.563-2.811v3.784H15.95V2.653C9.418 2.678 2.592 8.745 2.38 16.164h3.716v1.956H2.413c-.011 6.494 6.11 13.349 13.507 13.543v-3.121h1.93v3.089c5.753.087 13.161-5.266 13.616-13.491h-3.76v-1.899z" fill="url(#A)"/><defs><linearGradient id="A" x1="5.172" y1="28.88" x2="28.631" y2="5.419" gradientUnits="userSpaceOnUse"><stop stop-color="#ffc107"/><stop offset=".507" stop-color="#f44336"/><stop offset=".99" stop-color="#9c27b0"/></linearGradient></defs></svg>