<svg width="34" height="34" viewBox="0 0 34 34" fill="none" xmlns="http://www.w3.org/2000/svg">
<path d="M17.0046 25.9625C16.9364 25.9551 16.8811 25.968 16.8553 25.9441C14.6121 23.8962 12.3098 21.9055 10.1551 19.7691C8.80579 18.4328 8.02424 16.7425 8.1846 14.7462C8.34128 12.7684 9.53756 11.2145 11.3827 10.6081C13.3494 9.9611 15.2185 10.4662 16.5457 11.9998C16.6581 12.1288 16.7669 12.2578 16.9364 12.4569C17.9502 11.1095 19.1963 10.315 20.8737 10.3556C23.6883 10.4219 25.786 12.8292 25.6348 15.7895C25.5445 17.5554 24.7279 18.995 23.5077 20.1654C21.7345 21.8649 19.858 23.4593 18.0221 25.0943C17.6848 25.3948 17.3364 25.6805 17.0046 25.9625ZM27.7066 16.2411C29.6329 16.2411 31.5628 16.2411 33.4908 16.2411C33.4908 17.019 33.4908 17.795 33.4908 18.5728C33.4503 18.7387 33.3913 18.9028 33.371 19.0705C32.6392 25.5865 27.8596 31.26 21.5391 33.0591C20.4903 33.3577 19.399 33.5144 18.3263 33.7374C17.377 33.7374 16.4259 33.7374 15.4766 33.7374C15.3328 33.6987 15.1909 33.6415 15.0452 33.625C8.38368 32.86 2.77093 28.1099 0.960842 21.6658C0.676979 20.6539 0.523987 19.6051 0.312012 18.5728C0.312012 17.6236 0.312012 16.6724 0.312012 15.7213C0.352564 15.5554 0.409705 15.3914 0.429981 15.2236C1.25576 8.20078 6.52935 2.40739 13.4508 0.93462C14.1218 0.790845 14.8001 0.682093 15.4766 0.558594C16.4259 0.558594 17.377 0.558594 18.3263 0.558594C19.2516 0.74845 20.1861 0.899598 21.0985 1.13922C23.1648 1.68114 25.0376 2.64333 26.8477 3.97048C27.526 3.24055 28.1951 2.51983 28.9711 1.68483C30.0107 4.80364 30.9987 7.76761 32.0439 10.9012C28.9232 9.86156 25.9592 8.87541 22.8607 7.84319C23.7676 6.98422 24.5897 6.20636 25.4671 5.37505C23.1317 3.72348 20.7059 2.7742 17.9042 2.56407C17.9042 3.83039 17.9042 5.06907 17.9042 6.3483C17.2258 6.3483 16.6323 6.3483 15.9503 6.3483C15.9503 5.12437 15.9503 3.88753 15.9503 2.65255C9.41775 2.67835 2.59213 8.74454 2.38016 16.1637C3.60224 16.1637 4.82617 16.1637 6.09618 16.1637C6.09618 16.8346 6.09618 17.4448 6.09618 18.1194C4.85935 18.1194 3.63542 18.1194 2.41334 18.1194C2.40228 24.6132 8.52377 31.4683 15.9208 31.6619C15.9208 30.6352 15.9208 29.6103 15.9208 28.5412C16.5881 28.5412 17.1816 28.5412 17.8507 28.5412C17.8507 29.5827 17.8507 30.6075 17.8507 31.6305C23.6035 31.7172 31.0116 26.3643 31.4669 18.1397C30.2282 18.1397 28.9896 18.1397 27.7066 18.1397C27.7066 17.4724 27.7066 16.8789 27.7066 16.2411Z" fill="url(#paint0_linear)"/>
<defs>
<linearGradient id="paint0_linear" x1="5.17212" y1="28.8804" x2="28.6307" y2="5.4187" gradientUnits="userSpaceOnUse">
<stop stop-color="#FFC107"/>
<stop offset="0.507" stop-color="#F44336"/>
<stop offset="0.99" stop-color="#9C27B0"/>
</linearGradient>
</defs>
</svg>
