<svg width="32" height="32" viewBox="0 0 32 32" fill="none" xmlns="http://www.w3.org/2000/svg">
<path d="M16 32C19.1645 32 22.2579 31.0616 24.8891 29.3035C27.5203 27.5454 29.5711 25.0466 30.7821 22.1229C31.9931 19.1993 32.3099 15.9823 31.6926 12.8786C31.0752 9.77486 29.5513 6.92394 27.3137 4.6863C25.0761 2.44866 22.2251 0.924806 19.1214 0.307443C16.0177 -0.309921 12.8007 0.0069326 9.87706 1.21793C6.95345 2.42894 4.45459 4.4797 2.69649 7.11088C0.938383 9.74207 0 12.8355 0 16C0.00500432 20.2419 1.69232 24.3087 4.69182 27.3082C7.69132 30.3077 11.7581 31.995 16 32ZM16 2.9091C18.5891 2.9091 21.1201 3.67687 23.2729 5.11531C25.4257 6.55376 27.1036 8.59828 28.0944 10.9903C29.0852 13.3824 29.3445 16.0145 28.8394 18.5539C28.3342 21.0933 27.0875 23.4259 25.2567 25.2567C23.4259 27.0875 21.0933 28.3343 18.5539 28.8394C16.0145 29.3445 13.3824 29.0852 10.9903 28.0944C8.59827 27.1036 6.55375 25.4257 5.11531 23.2729C3.67686 21.1201 2.90909 18.5891 2.90909 16C2.91294 12.5293 4.29339 9.20177 6.74758 6.74759C9.20177 4.2934 12.5293 2.91295 16 2.9091Z" fill="white"/>
<path d="M10.6082 21.3915C10.881 21.6642 11.2509 21.8174 11.6366 21.8174C12.0223 21.8174 12.3922 21.6642 12.665 21.3915L16.0002 18.0563L19.3355 21.3915C19.6098 21.6565 19.9773 21.8031 20.3586 21.7998C20.74 21.7965 21.1048 21.6435 21.3745 21.3738C21.6442 21.1041 21.7972 20.7393 21.8005 20.3579C21.8038 19.9765 21.6572 19.6091 21.3922 19.3348L18.057 15.9995L21.3922 12.6643C21.6572 12.3899 21.8038 12.0225 21.8005 11.6411C21.7972 11.2597 21.6442 10.8949 21.3745 10.6252C21.1048 10.3556 20.74 10.2026 20.3586 10.1993C19.9773 10.196 19.6098 10.3426 19.3355 10.6075L16.0002 13.9428L12.665 10.6075C12.3906 10.3426 12.0232 10.196 11.6418 10.1993C11.2605 10.2026 10.8956 10.3556 10.626 10.6252C10.3563 10.8949 10.2033 11.2597 10.2 11.6411C10.1967 12.0225 10.3433 12.3899 10.6082 12.6643L13.9435 15.9995L10.6082 19.3348C10.3356 19.6076 10.1824 19.9775 10.1824 20.3632C10.1824 20.7489 10.3356 21.1188 10.6082 21.3915Z" fill="white"/>
</svg>
