<svg width="32" height="32" viewBox="0 0 32 32" fill="none" xmlns="http://www.w3.org/2000/svg">
<path d="M16 0C12.8355 0 9.74207 0.938383 7.11088 2.69649C4.4797 4.45459 2.42894 6.95345 1.21793 9.87706C0.0069326 12.8007 -0.309921 16.0177 0.307443 19.1214C0.924806 22.2251 2.44866 25.0761 4.6863 27.3137C6.92394 29.5513 9.77486 31.0752 12.8786 31.6926C15.9823 32.3099 19.1993 31.9931 22.1229 30.7821C25.0466 29.5711 27.5454 27.5203 29.3035 24.8891C31.0616 22.2579 32 19.1645 32 16C31.995 11.7581 30.3077 7.69132 27.3082 4.69182C24.3087 1.69232 20.2419 0.00500432 16 0ZM16 29.0909C13.4109 29.0909 10.8799 28.3231 8.72709 26.8847C6.5743 25.4462 4.8964 23.4017 3.90558 21.0097C2.91476 18.6176 2.65552 15.9855 3.16064 13.4461C3.66575 10.9067 4.91254 8.57412 6.74333 6.74333C8.57413 4.91253 10.9067 3.66574 13.4461 3.16063C15.9855 2.65551 18.6176 2.91476 21.0097 3.90558C23.4017 4.8964 25.4462 6.57429 26.8847 8.72708C28.3231 10.8799 29.0909 13.4109 29.0909 16C29.0871 19.4707 27.7066 22.7982 25.2524 25.2524C22.7982 27.7066 19.4707 29.0871 16 29.0909Z" fill="white"/>
<path d="M22.2898 11.2918L14.5894 18.3507L11.2105 14.9718C11.0763 14.8329 10.9158 14.7221 10.7384 14.6459C10.5609 14.5696 10.37 14.5295 10.1769 14.5278C9.98377 14.5262 9.79223 14.563 9.61348 14.6361C9.43472 14.7092 9.27231 14.8172 9.13574 14.9538C8.99917 15.0904 8.89117 15.2528 8.81803 15.4315C8.7449 15.6103 8.70809 15.8018 8.70977 15.995C8.71145 16.1881 8.75158 16.379 8.82781 16.5564C8.90404 16.7339 9.01485 16.8944 9.15377 17.0286L13.5174 21.3922C13.7825 21.6573 14.1397 21.8098 14.5145 21.818C14.8893 21.8261 15.2527 21.6892 15.529 21.4358L24.2563 13.4358C24.5406 13.1751 24.7097 12.812 24.7263 12.4266C24.743 12.0411 24.6058 11.6649 24.345 11.3806C24.0843 11.0962 23.7212 10.9272 23.3358 10.9105C22.9503 10.8939 22.5741 11.0311 22.2898 11.2918Z" fill="white"/>
</svg>
