<svg width="55" height="55" viewBox="0 0 55 55" fill="none" xmlns="http://www.w3.org/2000/svg">
<path d="M38.6152 0H16.3848C7.35018 0 0 7.35018 0 16.3848V38.6152C0 47.6498 7.35018 55 16.3848 55H38.6152C47.6498 55 55 47.6498 55 38.6152V16.3848C54.9999 7.35018 47.6497 0 38.6152 0ZM49.467 38.6152C49.467 44.6084 44.6084 49.467 38.6152 49.467H16.3848C10.3916 49.467 5.533 44.6084 5.533 38.6152V16.3848C5.533 10.3915 10.3916 5.533 16.3848 5.533H38.6152C44.6084 5.533 49.467 10.3915 49.467 16.3848V38.6152Z" fill="url(#paint0_linear)"/>
<path d="M27.5 13.2754C19.6563 13.2754 13.275 19.6567 13.275 27.5002C13.275 35.3438 19.6563 41.7252 27.5 41.7252C35.3436 41.7252 41.7249 35.3439 41.7249 27.5002C41.7249 19.6566 35.3436 13.2754 27.5 13.2754ZM27.5 36.1923C22.6995 36.1923 18.808 32.3008 18.808 27.5003C18.808 22.6999 22.6996 18.8084 27.5 18.8084C32.3005 18.8084 36.1919 22.6999 36.1919 27.5003C36.1919 32.3007 32.3004 36.1923 27.5 36.1923Z" fill="url(#paint1_linear)"/>
<path d="M41.7525 16.7898C43.635 16.7898 45.1611 15.2638 45.1611 13.3812C45.1611 11.4987 43.635 9.97266 41.7525 9.97266C39.87 9.97266 38.3439 11.4987 38.3439 13.3812C38.3439 15.2638 39.87 16.7898 41.7525 16.7898Z" fill="url(#paint2_linear)"/>
<defs>
<linearGradient id="paint0_linear" x1="8.05652" y1="46.9486" x2="46.9435" y2="8.05652" gradientUnits="userSpaceOnUse">
<stop stop-color="#FFC107"/>
<stop offset="0.507" stop-color="#F44336"/>
<stop offset="0.99" stop-color="#9C27B0"/>
</linearGradient>
<linearGradient id="paint1_linear" x1="17.4424" y1="37.5605" x2="37.5575" y2="17.4427" gradientUnits="userSpaceOnUse">
<stop stop-color="#FFC107"/>
<stop offset="0.507" stop-color="#F44336"/>
<stop offset="0.99" stop-color="#9C27B0"/>
</linearGradient>
<linearGradient id="paint2_linear" x1="39.3425" y1="15.7919" x2="44.1625" y2="10.9713" gradientUnits="userSpaceOnUse">
<stop stop-color="#FFC107"/>
<stop offset="0.507" stop-color="#F44336"/>
<stop offset="0.99" stop-color="#9C27B0"/>
</linearGradient>
</defs>
</svg>
