<svg xmlns="http://www.w3.org/2000/svg" width="55" height="55" fill="none" xmlns="http://www.w3.org/2000/svg"><path d="M38.615 0h-22.23C7.35 0 0 7.35 0 16.385v22.23C0 47.65 7.35 55 16.385 55h22.23C47.65 55 55 47.65 55 38.615v-22.23C55 7.35 47.65 0 38.615 0zm10.852 38.615c0 5.993-4.859 10.852-10.852 10.852h-22.23c-5.993 0-10.852-4.859-10.852-10.852v-22.23c0-5.993 4.859-10.852 10.852-10.852h22.23c5.993 0 10.852 4.859 10.852 10.852v22.23z" fill="url(#A)"/><path d="M27.5 13.275c-7.844 0-14.225 6.381-14.225 14.225S19.656 41.725 27.5 41.725 41.725 35.344 41.725 27.5 35.344 13.275 27.5 13.275zm0 22.917c-4.8 0-8.692-3.892-8.692-8.692s3.892-8.692 8.692-8.692 8.692 3.892 8.692 8.692-3.891 8.692-8.692 8.692z" fill="url(#B)"/><path d="M41.753 16.79a3.41 3.41 0 0 0 3.409-3.409 3.41 3.41 0 0 0-3.409-3.409 3.41 3.41 0 0 0-3.409 3.409 3.41 3.41 0 0 0 3.409 3.409z" fill="url(#C)"/><defs><linearGradient id="A" x1="8.057" y1="46.949" x2="46.944" y2="8.057" gradientUnits="userSpaceOnUse"><stop stop-color="#ffc107"/><stop offset=".507" stop-color="#f44336"/><stop offset=".99" stop-color="#9c27b0"/></linearGradient><linearGradient id="B" x1="17.442" y1="37.561" x2="37.558" y2="17.443" gradientUnits="userSpaceOnUse"><stop stop-color="#ffc107"/><stop offset=".507" stop-color="#f44336"/><stop offset=".99" stop-color="#9c27b0"/></linearGradient><linearGradient id="C" x1="39.343" y1="15.792" x2="44.163" y2="10.971" gradientUnits="userSpaceOnUse"><stop stop-color="#ffc107"/><stop offset=".507" stop-color="#f44336"/><stop offset=".99" stop-color="#9c27b0"/></linearGradient></defs></svg>