<svg width="40" height="40" viewBox="0 0 40 40" fill="none" xmlns="http://www.w3.org/2000/svg">
<path d="M16.8781 18.5419V3.0073C16.9045 2.20082 17.245 1.43616 17.8276 0.874963C18.4102 0.313762 19.1892 0 20 0C20.8108 0 21.5899 0.313762 22.1725 0.874963C22.7551 1.43616 23.0956 2.20082 23.122 3.0073V18.5419C23.0956 19.3484 22.7551 20.1131 22.1725 20.6743C21.5899 21.2355 20.8108 21.5492 20 21.5492C19.1892 21.5492 18.4102 21.2355 17.8276 20.6743C17.245 20.1131 16.9045 19.3484 16.8781 18.5419ZM32.375 4.45599C31.8856 4.09591 31.2745 3.93956 30.6712 4.02004C30.0679 4.10052 29.5198 4.41153 29.1429 4.88719C28.766 5.36285 28.5899 5.96582 28.652 6.56843C28.714 7.17103 29.0093 7.72594 29.4753 8.11566C31.3005 9.539 32.7754 11.3579 33.7879 13.434C34.8003 15.51 35.3236 17.7886 35.3179 20.0962C35.3179 28.5012 28.4457 35.3404 20.0017 35.3404C11.556 35.3404 4.6838 28.5012 4.6838 20.0962C4.67803 17.7898 5.20081 15.5124 6.21238 13.4372C7.22394 11.3621 8.69766 9.54377 10.5215 8.12061C10.993 7.73245 11.2932 7.17606 11.3579 6.57045C11.4226 5.96484 11.2465 5.3581 10.8675 4.87998C10.4884 4.40186 9.93643 4.09033 9.32955 4.01202C8.72267 3.93371 8.10909 4.09484 7.62005 4.46094C5.23923 6.3192 3.31548 8.69322 1.99508 11.4025C0.674683 14.1118 -0.00761493 17.0851 6.41062e-05 20.0962C6.41062e-05 31.0719 8.97294 40 20 40C31.0271 40 40 31.0703 40 20.0962C40 13.9599 37.2196 8.26086 32.375 4.45599Z" fill="#DA3B5A"/>
</svg>
