<svg xmlns="http://www.w3.org/2000/svg" width="40" height="40" fill="none" xmlns="http://www.w3.org/2000/svg"><path d="M16.878 18.542V3.007a3.1 3.1 0 0 1 .95-2.132 3.13 3.13 0 0 1 4.345 0 3.1 3.1 0 0 1 .95 2.132v15.535a3.1 3.1 0 0 1-.95 2.132 3.13 3.13 0 0 1-4.345 0 3.1 3.1 0 0 1-.95-2.132zM32.375 4.456a2.35 2.35 0 0 0-1.704-.436c-.603.08-1.151.391-1.528.867s-.553 1.079-.491 1.681a2.33 2.33 0 0 0 .823 1.547 15.19 15.19 0 0 1 4.313 5.318c1.012 2.076 1.536 4.355 1.53 6.662 0 8.405-6.872 15.244-15.316 15.244S4.684 28.501 4.684 20.096a15.11 15.11 0 0 1 1.529-6.659c1.012-2.075 2.485-3.893 4.309-5.317a2.33 2.33 0 0 0 .836-1.55c.065-.606-.111-1.212-.49-1.69s-.931-.79-1.538-.868a2.35 2.35 0 0 0-1.709.449c-2.381 1.858-4.305 4.232-5.625 6.942A19.73 19.73 0 0 0 0 20.096C0 31.072 8.973 40 20 40s20-8.93 20-19.904c0-6.136-2.78-11.835-7.625-15.64z" fill="#da3b5a"/></svg>