<svg xmlns="http://www.w3.org/2000/svg" width="32" height="32" viewBox="0 0 27 27" fill="none" xmlns="http://www.w3.org/2000/svg"><path d="M26.011 17.051l-2.849-2.234a10.6 10.6 0 0 0 .095-1.316 10.6 10.6 0 0 0-.095-1.316l2.855-2.234c.257-.203.331-.567.162-.864l-2.7-4.678c-.169-.29-.52-.412-.823-.29l-3.361 1.357c-.695-.533-1.458-.985-2.282-1.33L16.507.567C16.446.25 16.169 0 15.832 0h-5.4a.68.68 0 0 0-.668.567l-.506 3.577a9.99 9.99 0 0 0-2.281 1.33L3.614 4.117c-.304-.115-.655 0-.823.29l-2.7 4.678c-.169.29-.094.655.162.864l2.848 2.234c-.054.432-.094.871-.094 1.316s.041.884.094 1.316L.253 17.051c-.256.203-.331.567-.162.864l2.7 4.678c.169.29.52.412.823.29l3.362-1.357a10.24 10.24 0 0 0 2.281 1.33l.506 3.578a.68.68 0 0 0 .668.567h5.4a.68.68 0 0 0 .668-.567l.506-3.578c.823-.344 1.586-.79 2.282-1.33l3.361 1.357c.304.115.655 0 .823-.29l2.7-4.678c.169-.29.095-.655-.162-.864zm-12.879 1.175a4.72 4.72 0 1 1 0-9.45c2.612 0 4.725 2.113 4.725 4.725s-2.113 4.725-4.725 4.725z" fill="url(#A)"/><defs><linearGradient id="A" x1=".622" y1=".183" x2="9.496" y2="34.271" gradientUnits="userSpaceOnUse"><stop stop-color="#1de5e2"/><stop offset="1" stop-color="#b588f7"/></linearGradient></defs></svg>