<svg width="27" height="27" viewBox="0 0 27 27" fill="none" xmlns="http://www.w3.org/2000/svg">
<path d="M26.0107 17.0505L23.1622 14.8163C23.2162 14.3842 23.2567 13.9455 23.2567 13.5C23.2567 13.0545 23.2162 12.6158 23.1622 12.1837L26.0174 9.94947C26.2739 9.74697 26.3482 9.38247 26.1794 9.08549L23.4794 4.40774C23.3106 4.11746 22.9597 3.99596 22.6559 4.11746L19.2944 5.47422C18.5991 4.94094 17.8364 4.48874 17.0129 4.14448L16.5067 0.567001C16.4459 0.249771 16.1691 0 15.8317 0H10.4317C10.0942 0 9.81741 0.249771 9.76343 0.567001L9.25718 4.14448C8.4337 4.48874 7.6709 4.93424 6.97569 5.47422L3.61419 4.11746C3.31044 4.00274 2.95942 4.11746 2.79071 4.40774L0.0906195 9.08549C-0.0781519 9.37576 -0.00385957 9.74026 0.25262 9.94947L3.1011 12.1837C3.04712 12.6158 3.00662 13.0545 3.00662 13.5C3.00662 13.9455 3.04712 14.3842 3.1011 14.8163L0.25262 17.0505C-0.00385957 17.253 -0.0781519 17.6175 0.0906195 17.9145L2.79064 22.5923C2.95942 22.8825 3.31037 23.004 3.61413 22.8825L6.97563 21.5258C7.6709 22.0591 8.43363 22.5113 9.25711 22.8555L9.76336 26.433C9.81734 26.7502 10.0941 27 10.4316 27H15.8316C16.1691 27 16.4459 26.7502 16.4999 26.433L17.0061 22.8555C17.8296 22.5113 18.5924 22.0658 19.2876 21.5258L22.6491 22.8825C22.9528 22.9973 23.3039 22.8825 23.4726 22.5923L26.1726 17.9145C26.3414 17.6243 26.2671 17.2598 26.0107 17.0505ZM13.1316 18.225C10.5194 18.225 8.40661 16.1123 8.40661 13.5C8.40661 10.8877 10.5194 8.77504 13.1316 8.77504C15.7439 8.77504 17.8567 10.8878 17.8567 13.5001C17.8567 16.1123 15.7439 18.225 13.1316 18.225Z" fill="#BFD4DF"/>
</svg>
