<svg xmlns="http://www.w3.org/2000/svg" width="30" height="28" viewBox="0 0 25 24" fill="none" xmlns="http://www.w3.org/2000/svg"><path fill-rule="evenodd" d="M22.986 12.182h-9.025V7.034h-2.964v5.148H1.974C.884 12.182 0 11.363 0 10.352V8.793c0-1.012.884-1.832 1.974-1.832h3.788c-.552-.238-1.012-.487-1.284-.742-1.528-1.418-1.528-3.717 0-5.133C5.241.378 6.241.024 7.242.024s2.001.354 2.765 1.062c.64.594 1.255 2.066 1.755 3.577.231-.059.471-.099.722-.099a2.82 2.82 0 0 1 .724.101c.497-1.498 1.107-2.95 1.741-3.539.763-.708 1.765-1.063 2.766-1.063s2 .355 2.765 1.063c1.527 1.417 1.527 3.715 0 5.132-.259.241-.688.476-1.2.704h3.706c1.09 0 1.972.82 1.972 1.832v1.558c0 1.012-.882 1.831-1.972 1.831zM8.609 2.383c-.364-.338-.849-.524-1.366-.524a2 2 0 0 0-1.368.525c-.754.7-.754 1.838 0 2.539.409.356 2.017.916 4.003 1.435.056-.166.127-.323.217-.473-.542-1.745-1.114-3.138-1.485-3.503zm11.04 1.309a1.72 1.72 0 0 0-.566-1.27c-.366-.339-.852-.526-1.368-.526s-1.003.187-1.368.526c-.369.362-.934 1.737-1.472 3.464a2.37 2.37 0 0 1 .226.506c1.976-.518 3.576-1.076 3.983-1.434.364-.335.565-.787.565-1.266zm-8.652 19.904H2.615c-1.089 0-1.974-.819-1.974-1.832v-7.628h10.355v9.46zM4.074 17.17c0-.381-.332-.688-.742-.688s-.741.307-.741.688v3.816c0 .381.332.689.741.689s.742-.308.742-.689V17.17zm20.244 4.595c0 1.013-.885 1.832-1.974 1.832h-8.384v-9.46h10.357v7.628z" fill="url(#A)"/><defs><linearGradient id="A" x1=".622" y1=".183" x2="9.496" y2="34.271" gradientUnits="userSpaceOnUse"><stop stop-color="#1de5e2"/><stop offset="1" stop-color="#b588f7"/></linearGradient></defs></svg>