<svg width="25" height="24" viewBox="0 0 25 24" fill="none" xmlns="http://www.w3.org/2000/svg">
<path fill-rule="evenodd" clip-rule="evenodd" d="M22.9857 12.1822H13.9605V7.03396H10.9962V12.1822H1.97357C0.883609 12.1822 0 11.3632 0 10.3515V8.79341C0 7.7817 0.883609 6.96152 1.97357 6.96152H5.76198C5.21038 6.72333 4.75006 6.47408 4.47757 6.21993C2.94977 4.80181 2.94977 2.50336 4.47757 1.08647C5.24081 0.378022 6.24082 0.0244141 7.24215 0.0244141C8.24349 0.0244141 9.2435 0.378022 10.0067 1.08647C10.647 1.68072 11.262 3.15286 11.762 4.66307C11.9935 4.60413 12.233 4.56361 12.4843 4.56361C12.7356 4.56239 12.975 4.60413 13.2078 4.66429C13.7052 3.16637 14.315 1.71388 14.9486 1.12576C15.7118 0.417312 16.7132 0.062476 17.7145 0.062476C18.7145 0.062476 19.7145 0.417312 20.4791 1.12576C22.0056 2.54265 22.0056 4.8411 20.4791 6.25799C20.2198 6.49864 19.7913 6.73438 19.2793 6.96152H22.9857C24.0757 6.96152 24.958 7.7817 24.958 8.79341V10.3515C24.958 11.3632 24.0757 12.1822 22.9857 12.1822ZM8.60857 2.38303C8.24481 2.04538 7.75935 1.85876 7.24215 1.85876C6.72495 1.85876 6.23949 2.04538 5.87441 2.38426C5.12043 3.08411 5.12043 4.22228 5.87441 4.92336C6.28315 5.27943 7.89163 5.83931 9.87711 6.35867C9.93266 6.19291 10.0041 6.03575 10.094 5.88596C9.55171 4.14125 8.98027 2.74769 8.60857 2.38303ZM19.6484 3.69187C19.6484 3.2118 19.4473 2.76119 19.0822 2.42232C18.7158 2.08345 18.2304 1.89682 17.7145 1.89682C17.1973 1.89682 16.7118 2.08345 16.3468 2.42232C15.9777 2.78452 15.4129 4.15967 14.8745 5.88596C14.9698 6.04558 15.0452 6.21501 15.1007 6.39182C17.0769 5.87368 18.6762 5.31626 19.0836 4.95774C19.4473 4.62255 19.6484 4.17072 19.6484 3.69187ZM10.9962 23.5958H2.61511C1.52647 23.5958 0.641542 22.7769 0.641542 21.764V14.1356H10.9962V23.5958ZM4.07412 17.1695C4.07412 16.7889 3.74211 16.4819 3.33205 16.4819C2.92332 16.4807 2.5913 16.7889 2.5913 17.1695V20.9855C2.5913 21.3661 2.92332 21.6743 3.33205 21.6743C3.74211 21.6743 4.07412 21.3661 4.07412 20.9855V17.1695ZM24.3178 21.764C24.3178 22.7769 23.4328 23.5958 22.3442 23.5958H13.9605V14.1356H24.3178V21.764Z" fill="#BFD4DF"/>
</svg>
