<svg xmlns="http://www.w3.org/2000/svg" width="866" height="78" fill="none" xmlns="http://www.w3.org/2000/svg"><g clip-path="url(#B)"><g filter="url(#A)"><path fill-rule="evenodd" d="M385 4.433C385 2.05 383.146 0 380.763 0H3C-2.523 0-7 4.477-7 10v58c0 5.523 4.477 10 10 10h868c5.523 0 10-4.477 10-10V10a10 10 0 0 0-10-10H485.237C482.854 0 481 2.05 481 4.433h0c0 26.509-21.49 48-48 48s-48-21.49-48-48h0z" fill="#fff"/></g></g><defs><filter id="A" x="-62" y="-62" width="998" height="188" filterUnits="userSpaceOnUse" color-interpolation-filters="sRGB"><feFlood flood-opacity="0" result="A"/><feColorMatrix in="SourceAlpha" values="0 0 0 0 0 0 0 0 0 0 0 0 0 0 0 0 0 0 127 0"/><feOffset dy="-7"/><feGaussianBlur stdDeviation="27.5"/><feColorMatrix values="0 0 0 0 0 0 0 0 0 0 0 0 0 0 0 0 0 0 0.15 0"/><feBlend in2="A"/><feBlend in="SourceGraphic"/></filter><clipPath id="B"><path fill="#fff" d="M0 0h866v78H0z"/></clipPath></defs></svg>