<svg width="866" height="78" viewBox="0 0 866 78" fill="none" xmlns="http://www.w3.org/2000/svg">
<g clip-path="url(#clip0)">
<g filter="url(#filter0_d)">
<path fill-rule="evenodd" clip-rule="evenodd" d="M385 4.43307C385 2.04973 383.146 0 380.763 0H3C-2.52285 0 -7 4.47715 -7 10V68C-7 73.5228 -2.52283 78 3.00002 78H871C876.523 78 881 73.5228 881 68V10C881 4.47715 876.523 0 871 0H485.237C482.854 0 481 2.04973 481 4.43307V4.43307C481 30.9424 459.51 52.4326 433 52.4326C406.49 52.4326 385 30.9424 385 4.43307V4.43307Z" fill="white"/>
</g>
</g>
<defs>
<filter id="filter0_d" x="-62" y="-62" width="998" height="188" filterUnits="userSpaceOnUse" color-interpolation-filters="sRGB">
<feFlood flood-opacity="0" result="BackgroundImageFix"/>
<feColorMatrix in="SourceAlpha" type="matrix" values="0 0 0 0 0 0 0 0 0 0 0 0 0 0 0 0 0 0 127 0"/>
<feOffset dy="-7"/>
<feGaussianBlur stdDeviation="27.5"/>
<feColorMatrix type="matrix" values="0 0 0 0 0 0 0 0 0 0 0 0 0 0 0 0 0 0 0.15 0"/>
<feBlend mode="normal" in2="BackgroundImageFix" result="effect1_dropShadow"/>
<feBlend mode="normal" in="SourceGraphic" in2="effect1_dropShadow" result="shape"/>
</filter>
<clipPath id="clip0">
<rect width="866" height="78" fill="white"/>
</clipPath>
</defs>
</svg>
