<svg  viewBox="0 0 26 24" fill="none" xmlns="http://www.w3.org/2000/svg">
<path d="M24.7146 10.8764C24.9577 10.6431 25.1296 10.3467 25.2107 10.021C25.2918 9.69535 25.2787 9.35363 25.1729 9.035C25.0696 8.71544 24.8776 8.43123 24.6188 8.21493C24.3601 7.99864 24.0451 7.85902 23.71 7.81207L17.5932 6.93075C17.4649 6.91226 17.3431 6.8631 17.2382 6.78751C17.1333 6.71192 17.0486 6.61217 16.9913 6.49685L14.2566 1.00123C14.108 0.699842 13.8767 0.446074 13.5894 0.268998C13.302 0.0919219 12.9702 -0.00129998 12.6318 1.36948e-05C12.2936 -0.0012056 11.9618 0.0920606 11.6746 0.269132C11.3873 0.446203 11.1561 0.699919 11.0075 1.00123L8.27239 6.49736C8.15605 6.73161 7.93044 6.89363 7.66992 6.93125L1.55315 7.81257C1.21806 7.85952 0.90309 7.99914 0.644346 8.21543C0.385602 8.43173 0.193557 8.71594 0.0902258 9.0355C-0.0155067 9.35413 -0.0285951 9.69585 0.0524598 10.0215C0.133515 10.3472 0.305435 10.6436 0.548528 10.8769L4.97423 15.1546C5.16292 15.3372 5.24942 15.6001 5.2049 15.8569L4.16082 21.8973C4.11359 22.1539 4.12453 22.4178 4.19286 22.6697C4.26119 22.9217 4.3852 23.1554 4.55589 23.3539C5.09513 23.9895 6.03652 24.1831 6.78923 23.7908L12.2595 20.9387C12.3748 20.8803 12.5024 20.8499 12.6318 20.8499C12.7613 20.8499 12.8889 20.8803 13.0041 20.9387L18.4749 23.7908C18.7343 23.928 19.0237 23.9998 19.3177 24C19.8524 24 20.3592 23.7642 20.7078 23.3539C20.8785 23.1554 21.0025 22.9217 21.0709 22.6697C21.1392 22.4178 21.1501 22.1539 21.1028 21.8973L20.0583 15.8569C20.0364 15.7301 20.046 15.5999 20.0862 15.4775C20.1264 15.3552 20.1959 15.2444 20.2889 15.1546L24.7146 10.8764Z" fill="url(#paint0_linear)"/>
    <defs>
        <linearGradient id="paint0_linear" x1="0.621948" y1="0.182617" x2="9.49594" y2="34.2706" gradientUnits="userSpaceOnUse">
            <stop stop-color="#1DE5E2"/>
            <stop offset="1" stop-color="#B588F7"/>
        </linearGradient>
    </defs>
</svg>
