<svg xmlns="http://www.w3.org/2000/svg" viewBox="0 0 26 24" fill="none" xmlns="http://www.w3.org/2000/svg"><path d="M24.715 10.876c.243-.233.415-.53.496-.855a1.77 1.77 0 0 0-.038-.986c-.103-.32-.295-.604-.554-.82a1.81 1.81 0 0 0-.909-.403l-6.117-.881c-.128-.018-.25-.068-.355-.143s-.19-.175-.247-.291l-2.735-5.496a1.79 1.79 0 0 0-.667-.732A1.81 1.81 0 0 0 12.632 0a1.81 1.81 0 0 0-.957.269 1.79 1.79 0 0 0-.667.732L8.272 6.497a.8.8 0 0 1-.602.434l-6.117.881a1.81 1.81 0 0 0-.909.403c-.259.216-.451.501-.554.82a1.77 1.77 0 0 0-.038.986 1.78 1.78 0 0 0 .496.855l4.426 4.278a.79.79 0 0 1 .231.702l-1.044 6.04c-.047.257-.036.52.032.772s.192.486.363.684a1.84 1.84 0 0 0 2.233.437l5.47-2.852c.115-.058.243-.089.372-.089s.257.03.372.089l5.471 2.852c.259.137.549.209.843.209.535 0 1.042-.236 1.39-.646.171-.198.295-.432.363-.684s.079-.516.032-.772l-1.044-6.04c-.022-.127-.012-.257.028-.379s.11-.233.203-.323l4.426-4.278z" fill="#bfd4df"/></svg>