<svg width="26" height="31" viewBox="0 0 26 31" fill="none" xmlns="http://www.w3.org/2000/svg">
<path fill-rule="evenodd" clip-rule="evenodd" d="M19.5292 6.50791C19.5292 10.0013 16.6973 12.8332 13.204 12.8332C9.71059 12.8332 6.87866 10.0013 6.87866 6.50791C6.87866 3.01455 9.71059 0.182617 13.204 0.182617C16.6973 0.182617 19.5292 3.01455 19.5292 6.50791ZM21.5702 17.6594C23.8523 19.8528 25.1359 22.8823 25.2002 26.214C23.0315 28.0137 19.0364 30.1824 12.9109 30.1824C7.24624 30.1824 2.79062 28.0137 0.621948 26.2033C0.688993 22.8757 1.97174 19.8505 4.25173 17.6594C6.52061 15.4794 9.59551 14.2788 12.9109 14.2788C16.2264 14.2788 19.3013 15.4794 21.5702 17.6594Z" fill="url(#paint0_linear)"/>
<defs>
<linearGradient id="paint0_linear" x1="0.621948" y1="0.182617" x2="9.49594" y2="34.2706" gradientUnits="userSpaceOnUse">
<stop stop-color="#1DE5E2"/>
<stop offset="1" stop-color="#B588F7"/>
</linearGradient>
</defs>
</svg>
