<svg xmlns="http://www.w3.org/2000/svg" width="26" height="31" fill="none" xmlns="http://www.w3.org/2000/svg"><path fill-rule="evenodd" d="M19.529 6.508c0 3.493-2.832 6.325-6.325 6.325s-6.325-2.832-6.325-6.325S9.711.183 13.204.183s6.325 2.832 6.325 6.325zm2.041 11.151c2.282 2.193 3.566 5.223 3.63 8.555-2.169 1.8-6.164 3.968-12.289 3.968-5.665 0-10.12-2.169-12.289-3.979.067-3.328 1.35-6.353 3.63-8.544 2.269-2.18 5.344-3.381 8.659-3.381s6.39 1.201 8.659 3.381z" fill="url(#A)"/><defs><linearGradient id="A" x1=".622" y1=".183" x2="9.496" y2="34.271" gradientUnits="userSpaceOnUse"><stop stop-color="#1de5e2"/><stop offset="1" stop-color="#b588f7"/></linearGradient></defs></svg>