<svg width="21" height="25" viewBox="0 0 21 25" fill="none" xmlns="http://www.w3.org/2000/svg">
<path d="M20.6232 21.3664C20.5708 18.6551 19.5263 16.1898 17.6691 14.4049C15.8228 12.6308 13.3205 11.6538 10.6224 11.6538C7.92443 11.6538 5.42214 12.6308 3.57578 14.4049C1.72038 16.1879 0.676509 18.6498 0.621948 21.3577C2.38676 22.831 6.01265 24.5958 10.6224 24.5958C15.6072 24.5958 18.8584 22.831 20.6232 21.3664Z" fill="#BFD4DF"/>
<path d="M10.8609 10.4774C13.7038 10.4774 16.0083 8.17281 16.0083 5.32999C16.0083 2.48718 13.7038 0.182617 10.8609 0.182617C8.01812 0.182617 5.71356 2.48718 5.71356 5.32999C5.71356 8.17281 8.01812 10.4774 10.8609 10.4774Z" fill="#BFD4DF"/>
</svg>
