<svg width="34" height="25" viewBox="0 0 34 25" fill="none" xmlns="http://www.w3.org/2000/svg">
<path d="M24.7079 6.85951H4.96962L9.00797 2.61298C9.57645 2.01521 9.57645 1.04618 9.00797 0.448398C8.43934 -0.149551 7.51797 -0.149381 6.94934 0.448398L0.426356 7.30797C-0.142119 7.90575 -0.142119 8.87478 0.426356 9.47256L6.94934 16.3318C7.23365 16.6308 7.60611 16.7801 7.97857 16.7801C8.35103 16.7801 8.72349 16.6306 9.00781 16.3318C9.57629 15.734 9.57629 14.765 9.00781 14.1672L4.96946 9.92068H24.7077C27.8587 9.92068 30.4222 12.6164 30.4222 15.9298C30.4222 19.2431 27.8587 21.9388 24.7077 21.9388H12.7007C11.8968 21.9388 11.2452 22.624 11.2452 23.4694C11.2452 24.3148 11.8968 25 12.7007 25H24.7077C29.4638 25 33.3333 20.931 33.3333 15.9298C33.3333 10.9285 29.464 6.85951 24.7079 6.85951Z" fill="#BFD4DF"/>
</svg>
