<svg xmlns="http://www.w3.org/2000/svg" width="34" height="25" fill="none" xmlns="http://www.w3.org/2000/svg"><path d="M24.708 6.86H4.97l4.038-4.247a1.59 1.59 0 0 0 0-2.165c-.569-.598-1.49-.598-2.059 0L.426 7.308a1.59 1.59 0 0 0 0 2.165l6.523 6.859c.284.299.657.448 1.029.448s.745-.149 1.029-.448a1.59 1.59 0 0 0 0-2.165L4.969 9.921h19.738c3.151 0 5.715 2.696 5.715 6.009s-2.564 6.009-5.715 6.009H12.701c-.804 0-1.455.685-1.455 1.531S11.897 25 12.701 25h12.007c4.756 0 8.626-4.069 8.626-9.07s-3.869-9.07-8.625-9.07z" fill="#bfd4df"/></svg>