<svg xmlns="http://www.w3.org/2000/svg" xmlns:xlink="http://www.w3.org/1999/xlink" width="16" height="16" xmlns="http://www.w3.org/2000/svg"><g fill="#e4e8e9"><path d="M14.125 1.25h-.75V0h-1.25v1.25h-8.25V0h-1.25v1.25h-.75C.84 1.25 0 2.09 0 3.125v11C0 15.16.84 16 1.875 16h12.25C15.16 16 16 15.16 16 14.125v-11c0-1.035-.84-1.875-1.875-1.875zm.625 12.875c0 .344-.281.625-.625.625H1.875c-.344 0-.625-.281-.625-.625v-8.25h13.5zm0-9.5H1.25v-1.5c0-.344.281-.625.625-.625h.75v1.25h1.25V2.5h8.25v1.25h1.25V2.5h.75c.344 0 .625.281.625.625zm0 0"/><use xlink:href="#B"/><use xlink:href="#B" x="2.5"/><use xlink:href="#B" x="5"/><use xlink:href="#B" x="7.5"/><use xlink:href="#B" x="10"/><use xlink:href="#B" y="2.5"/><use xlink:href="#B" x="2.5" y="2.5"/><use xlink:href="#B" x="5" y="2.5"/><use xlink:href="#B" x="7.5" y="2.5"/><use xlink:href="#B" y="5"/><use xlink:href="#B" x="2.5" y="5"/><use xlink:href="#B" x="5" y="5"/><use xlink:href="#B" x="7.5" y="5"/><use xlink:href="#B" x="10" y="2.5"/></g><defs ><path id="B" d="M2.375 7.188h1.25v1.25h-1.25zm0 0"/></defs></svg>