<svg width="52" height="103" viewBox="0 0 52 103" fill="none" xmlns="http://www.w3.org/2000/svg">
<path opacity="0.15" fill-rule="evenodd" clip-rule="evenodd" d="M101.987 11.3582C102.131 8.41717 101.108 5.50637 99.1758 3.37022C97.2404 1.23072 94.5169 0 91.7061 0H83.5857H76.0287H64.1148H57.6077H44.3923H37.8852H25.9713H18.4143H10.2939C7.48314 0 4.75956 1.23072 2.82421 3.37022C0.892217 5.50637 -0.130801 8.41717 0.0134276 11.3582C0.419281 19.554 2.31773 27.0288 5.65177 33.5848C8.35858 38.9001 11.9878 43.5815 16.4455 47.4883C17.2068 48.1623 17.9649 48.7827 18.7162 49.3629C19.0919 52.2233 19.8197 55.0067 20.8998 57.6861C22.4896 61.6365 24.7671 65.1811 27.6618 68.2193C30.5598 71.2643 33.934 73.6519 37.694 75.3253C40.743 76.6801 43.9361 77.505 47.2232 77.8035V85.5768C43.8791 86.1301 40.7598 87.4111 38.1905 89.3159C33.934 92.4715 31.4922 97.1194 31.4922 102.066V110H39.0491H62.9509H70.5078V102.066C70.5078 97.1194 68.066 92.4715 63.8095 89.3159C61.2402 87.4111 58.1209 86.1301 54.7801 85.5768V77.8035C58.0639 77.505 61.257 76.6801 64.306 75.3253C68.066 73.6519 71.4402 71.2643 74.3382 68.2193C77.2362 65.1811 79.5104 61.6365 81.1002 57.6861C82.1803 55.0067 82.9081 52.2233 83.2838 49.3629C84.0351 48.7827 84.7932 48.1623 85.5546 47.4883C90.0122 43.5815 93.6414 38.9001 96.3482 33.5848C99.6823 27.0288 101.581 19.554 101.987 11.3582ZM73.9894 54.9564C70.2663 63.8162 61.8272 69.9967 52.013 69.9967H49.987C40.1728 69.9967 31.7337 63.8162 28.0106 54.9564C26.7192 51.888 25.9947 48.4977 25.9746 44.9329C25.9746 44.8826 25.9713 44.8323 25.9713 44.782V7.93763H37.8852H45.5294H56.4706H64.1148H76.0287V44.782C76.0287 44.8323 76.0254 44.8826 76.0254 44.9329C76.0053 48.4977 75.2808 51.888 73.9894 54.9564ZM7.56029 10.9457C7.47979 9.30584 8.73089 7.93763 10.2939 7.93763H18.4143V38.6016C13.0544 32.8169 8.21099 24.0241 7.56029 10.9457ZM62.9509 102.066H39.0491C39.0491 97.4916 43.7148 93.7324 49.7086 93.2529H52.2914C58.2852 93.7324 62.9509 97.4916 62.9509 102.066ZM94.4397 10.9457C93.789 24.0241 88.9456 32.8169 83.5857 38.6016V7.93763H91.7061C93.2691 7.93763 94.5202 9.30584 94.4397 10.9457Z" fill="#1FC1EF"/>
</svg>
