<svg xmlns="http://www.w3.org/2000/svg" width="52" height="103" fill="none" xmlns="http://www.w3.org/2000/svg"><path opacity=".15" fill-rule="evenodd" d="M101.987 11.358c.144-2.941-.879-5.852-2.811-7.988S94.517 0 91.706 0h-8.12-7.557-11.914-6.507-13.215-6.507-11.914-7.557-8.12C7.483 0 4.76 1.231 2.824 3.37S-.131 8.417.013 11.358c.406 8.196 2.304 15.671 5.638 22.227 2.707 5.315 6.336 9.997 10.794 13.904a43.81 43.81 0 0 0 2.271 1.875c.376 2.86 1.104 5.644 2.184 8.323 1.59 3.95 3.867 7.495 6.762 10.533 2.898 3.045 6.272 5.433 10.032 7.106 3.049 1.355 6.242 2.18 9.529 2.478v7.773c-3.344.553-6.463 1.834-9.033 3.739-4.257 3.156-6.698 7.804-6.698 12.75V110h7.557 23.902 7.557v-7.934c0-4.947-2.442-9.594-6.698-12.75-2.569-1.905-5.689-3.186-9.029-3.739v-7.773c3.284-.299 6.477-1.123 9.526-2.478 3.76-1.673 7.134-4.061 10.032-7.106 2.898-3.038 5.172-6.583 6.762-10.533 1.08-2.679 1.808-5.463 2.184-8.323.751-.58 1.509-1.201 2.271-1.875 4.458-3.907 8.087-8.588 10.794-13.904 3.334-6.556 5.233-14.031 5.639-22.227zM73.989 54.956c-3.723 8.86-12.162 15.04-21.976 15.04h-2.026c-9.814 0-18.253-6.181-21.976-15.04-1.291-3.068-2.016-6.459-2.036-10.024 0-.05-.003-.101-.003-.151V7.938h11.914 7.644 10.941 7.644 11.914v36.844c0 .05-.003.101-.003.151-.02 3.565-.745 6.955-2.036 10.024zM7.56 10.946c-.08-1.64 1.171-3.008 2.734-3.008h8.12v30.664C13.054 32.817 8.211 24.024 7.56 10.946zm55.391 91.12H39.049c0-4.574 4.666-8.334 10.659-8.813h2.583c5.994.48 10.659 4.239 10.659 8.813zm31.489-91.12c-.651 13.078-5.494 21.871-10.854 27.656V7.938h8.12c1.563 0 2.814 1.368 2.734 3.008z" fill="#1fc1ef"/></svg>