<svg xmlns="http://www.w3.org/2000/svg" viewBox="0 0 27 29" fill="none" xmlns="http://www.w3.org/2000/svg"><path fill-rule="evenodd" d="M26.996 2.994c.038-.775-.233-1.543-.744-2.106S25.019 0 24.275 0h-2.149-2-3.154-1.722-3.498-1.723-3.154-2-2.15C1.981 0 1.26.324.748.889S-.035 2.219.004 2.994c.107 2.161.61 4.131 1.493 5.86.716 1.401 1.677 2.636 2.857 3.665l.601.494c.099.754.292 1.488.578 2.194a8.73 8.73 0 0 0 1.79 2.777c.767.803 1.66 1.432 2.656 1.873.807.357 1.652.575 2.522.653v2.049c-.885.146-1.711.484-2.391.986-1.127.832-1.773 2.057-1.773 3.361V29h2 6.327 2v-2.092c0-1.304-.646-2.529-1.773-3.361-.68-.502-1.506-.84-2.39-.986v-2.049c.869-.079 1.714-.296 2.522-.653.995-.441 1.888-1.071 2.656-1.873s1.369-1.735 1.79-2.777a8.95 8.95 0 0 0 .578-2.194l.601-.494c1.18-1.03 2.141-2.264 2.857-3.665.883-1.728 1.385-3.699 1.492-5.86zm-7.411 11.494c-.985 2.336-3.219 3.965-5.817 3.965h-.536c-2.598 0-4.832-1.629-5.817-3.965-.342-.809-.534-1.703-.539-2.642l-.001-.04V2.093h3.154 2.024 2.896 2.023 3.154v9.714l-.001.04c-.005.94-.197 1.834-.539 2.643zM2.001 2.886c-.021-.432.31-.793.724-.793h2.15v8.084C3.456 8.652 2.174 6.334 2.001 2.886zm14.662 24.023h-6.327c0-1.206 1.235-2.197 2.822-2.323h.684c1.587.127 2.822 1.117 2.822 2.323zm8.335-24.023c-.172 3.448-1.454 5.766-2.873 7.291V2.093h2.149c.414 0 .745.361.724.793z" fill="#ffd822"/></svg>