<svg viewBox="0 0 27 29" fill="none" xmlns="http://www.w3.org/2000/svg">
<path fill-rule="evenodd" clip-rule="evenodd" d="M26.9964 2.99442C27.0346 2.21907 26.7638 1.45168 26.2524 0.888513C25.7401 0.324462 25.0192 0 24.2751 0H22.1256H20.1253H16.9716H15.2491H11.7509H10.0284H6.87475H4.87439H2.72486C1.98083 0 1.25988 0.324462 0.747586 0.888513C0.236175 1.45168 -0.0346239 2.21907 0.00355436 2.99442C0.110986 5.15514 0.613518 7.12579 1.49606 8.85419C2.21256 10.2555 3.17323 11.4897 4.35321 12.5196C4.55475 12.6973 4.75541 12.8609 4.95429 13.0138C5.05373 13.768 5.2464 14.5018 5.53229 15.2082C5.95314 16.2496 6.556 17.1841 7.32223 17.9851C8.08935 18.7878 8.98254 19.4173 9.97784 19.8585C10.7849 20.2157 11.6302 20.4331 12.5003 20.5118V22.5612C11.6151 22.707 10.7893 23.0448 10.1092 23.5469C8.98254 24.3789 8.33617 25.6042 8.33617 26.9082V29H10.3365H16.6635H18.6638V26.9082C18.6638 25.6042 18.0175 24.3789 16.8908 23.5469C16.2107 23.0448 15.3849 22.707 14.5006 22.5612V20.5118C15.3698 20.4331 16.2151 20.2157 17.0222 19.8585C18.0175 19.4173 18.9107 18.7878 19.6778 17.9851C20.4449 17.1841 21.0469 16.2496 21.4677 15.2082C21.7536 14.5018 21.9463 13.768 22.0457 13.0138C22.2446 12.8609 22.4452 12.6973 22.6468 12.5196C23.8268 11.4897 24.7874 10.2555 25.5039 8.85419C26.3865 7.12579 26.889 5.15514 26.9964 2.99442ZM19.5854 14.4885C18.5999 16.8243 16.366 18.4537 13.7681 18.4537H13.2319C10.634 18.4537 8.4001 16.8243 7.41457 14.4885C7.07274 13.6796 6.88096 12.7857 6.87563 11.846C6.87563 11.8327 6.87475 11.8194 6.87475 11.8062V2.09265H10.0284H12.0519H14.9481H16.9716H20.1253V11.8062C20.1253 11.8194 20.1244 11.8327 20.1244 11.846C20.119 12.7857 19.9273 13.6796 19.5854 14.4885ZM2.00125 2.88568C1.97994 2.45336 2.31112 2.09265 2.72486 2.09265H4.87439V10.1768C3.45558 8.65173 2.1735 6.33364 2.00125 2.88568ZM16.6635 26.9082H10.3365C10.3365 25.7023 11.5716 24.7113 13.1582 24.5848H13.8418C15.4284 24.7113 16.6635 25.7023 16.6635 26.9082ZM24.9987 2.88568C24.8265 6.33364 23.5444 8.65173 22.1256 10.1768V2.09265H24.2751C24.6889 2.09265 25.0201 2.45336 24.9987 2.88568Z" fill="#FFD822"/>
</svg>
