<svg  height="1" viewBox="0 0 309 1" fill="none" xmlns="http://www.w3.org/2000/svg" preserveAspectRatio="none">
<path fill-rule="evenodd" clip-rule="evenodd" d="M2 0.626175H0V0.129395H2V0.626175Z" fill="#B0B0B0"/>
<path fill-rule="evenodd" clip-rule="evenodd" d="M7 0.626175H5V0.129395H7V0.626175Z" fill="#B0B0B0"/>
<path fill-rule="evenodd" clip-rule="evenodd" d="M12 0.626175H10V0.129395H12V0.626175Z" fill="#B0B0B0"/>
<path fill-rule="evenodd" clip-rule="evenodd" d="M17 0.626175H15V0.129395H17V0.626175Z" fill="#B0B0B0"/>
<path fill-rule="evenodd" clip-rule="evenodd" d="M22 0.626175H20V0.129395H22V0.626175Z" fill="#B0B0B0"/>
<path fill-rule="evenodd" clip-rule="evenodd" d="M26 0.626175H24V0.129395H26V0.626175Z" fill="#B0B0B0"/>
<path fill-rule="evenodd" clip-rule="evenodd" d="M31 0.626175H29V0.129395H31V0.626175Z" fill="#B0B0B0"/>
<path fill-rule="evenodd" clip-rule="evenodd" d="M36 0.626175H34V0.129395H36V0.626175Z" fill="#B0B0B0"/>
<path fill-rule="evenodd" clip-rule="evenodd" d="M41 0.626175H39V0.129395H41V0.626175Z" fill="#B0B0B0"/>
<path fill-rule="evenodd" clip-rule="evenodd" d="M46 0.626175H44V0.129395H46V0.626175Z" fill="#B0B0B0"/>
<path fill-rule="evenodd" clip-rule="evenodd" d="M51 0.626175H49V0.129395H51V0.626175Z" fill="#B0B0B0"/>
<path fill-rule="evenodd" clip-rule="evenodd" d="M56 0.626175H54V0.129395H56V0.626175Z" fill="#B0B0B0"/>
<path fill-rule="evenodd" clip-rule="evenodd" d="M61 0.626175H59V0.129395H61V0.626175Z" fill="#B0B0B0"/>
<path fill-rule="evenodd" clip-rule="evenodd" d="M65 0.626175H63V0.129395H65V0.626175Z" fill="#B0B0B0"/>
<path fill-rule="evenodd" clip-rule="evenodd" d="M70 0.626175H68V0.129395H70V0.626175Z" fill="#B0B0B0"/>
<path fill-rule="evenodd" clip-rule="evenodd" d="M75 0.626175H73V0.129395H75V0.626175Z" fill="#B0B0B0"/>
<path fill-rule="evenodd" clip-rule="evenodd" d="M80 0.626175H78V0.129395H80V0.626175Z" fill="#B0B0B0"/>
<path fill-rule="evenodd" clip-rule="evenodd" d="M85 0.626175H83V0.129395H85V0.626175Z" fill="#B0B0B0"/>
<path fill-rule="evenodd" clip-rule="evenodd" d="M90 0.626175H88V0.129395H90V0.626175Z" fill="#B0B0B0"/>
<path fill-rule="evenodd" clip-rule="evenodd" d="M95 0.626175H93V0.129395H95V0.626175Z" fill="#B0B0B0"/>
<path fill-rule="evenodd" clip-rule="evenodd" d="M100 0.626175H98V0.129395H100V0.626175Z" fill="#B0B0B0"/>
<path fill-rule="evenodd" clip-rule="evenodd" d="M104 0.626175H102V0.129395H104V0.626175Z" fill="#B0B0B0"/>
<path fill-rule="evenodd" clip-rule="evenodd" d="M109 0.626175H107V0.129395H109V0.626175Z" fill="#B0B0B0"/>
<path fill-rule="evenodd" clip-rule="evenodd" d="M114 0.626175H112V0.129395H114V0.626175Z" fill="#B0B0B0"/>
<path fill-rule="evenodd" clip-rule="evenodd" d="M119 0.626175H117V0.129395H119V0.626175Z" fill="#B0B0B0"/>
<path fill-rule="evenodd" clip-rule="evenodd" d="M124 0.626175H122V0.129395H124V0.626175Z" fill="#B0B0B0"/>
<path fill-rule="evenodd" clip-rule="evenodd" d="M129 0.626175H127V0.129395H129V0.626175Z" fill="#B0B0B0"/>
<path fill-rule="evenodd" clip-rule="evenodd" d="M134 0.626175H132V0.129395H134V0.626175Z" fill="#B0B0B0"/>
<path fill-rule="evenodd" clip-rule="evenodd" d="M139 0.626175H137V0.129395H139V0.626175Z" fill="#B0B0B0"/>
<path fill-rule="evenodd" clip-rule="evenodd" d="M143 0.626175H141V0.129395H143V0.626175Z" fill="#B0B0B0"/>
<path fill-rule="evenodd" clip-rule="evenodd" d="M148 0.626175H146V0.129395H148V0.626175Z" fill="#B0B0B0"/>
<path fill-rule="evenodd" clip-rule="evenodd" d="M153 0.626175H151V0.129395H153V0.626175Z" fill="#B0B0B0"/>
<path fill-rule="evenodd" clip-rule="evenodd" d="M158 0.626175H156V0.129395H158V0.626175Z" fill="#B0B0B0"/>
<path fill-rule="evenodd" clip-rule="evenodd" d="M163 0.626175H161V0.129395H163V0.626175Z" fill="#B0B0B0"/>
<path fill-rule="evenodd" clip-rule="evenodd" d="M168 0.626175H166V0.129395H168V0.626175Z" fill="#B0B0B0"/>
<path fill-rule="evenodd" clip-rule="evenodd" d="M173 0.626175H171V0.129395H173V0.626175Z" fill="#B0B0B0"/>
<path fill-rule="evenodd" clip-rule="evenodd" d="M178 0.626175H176V0.129395H178V0.626175Z" fill="#B0B0B0"/>
<path fill-rule="evenodd" clip-rule="evenodd" d="M182 0.626175H180V0.129395H182V0.626175Z" fill="#B0B0B0"/>
<path fill-rule="evenodd" clip-rule="evenodd" d="M187 0.626175H185V0.129395H187V0.626175Z" fill="#B0B0B0"/>
<path fill-rule="evenodd" clip-rule="evenodd" d="M192 0.626175H190V0.129395H192V0.626175Z" fill="#B0B0B0"/>
<path fill-rule="evenodd" clip-rule="evenodd" d="M197 0.626175H195V0.129395H197V0.626175Z" fill="#B0B0B0"/>
<path fill-rule="evenodd" clip-rule="evenodd" d="M202 0.626175H200V0.129395H202V0.626175Z" fill="#B0B0B0"/>
<path fill-rule="evenodd" clip-rule="evenodd" d="M207 0.626175H205V0.129395H207V0.626175Z" fill="#B0B0B0"/>
<path fill-rule="evenodd" clip-rule="evenodd" d="M212 0.626175H210V0.129395H212V0.626175Z" fill="#B0B0B0"/>
<path fill-rule="evenodd" clip-rule="evenodd" d="M217 0.626175H215V0.129395H217V0.626175Z" fill="#B0B0B0"/>
<path fill-rule="evenodd" clip-rule="evenodd" d="M221 0.626175H219V0.129395H221V0.626175Z" fill="#B0B0B0"/>
<path fill-rule="evenodd" clip-rule="evenodd" d="M226 0.626175H224V0.129395H226V0.626175Z" fill="#B0B0B0"/>
<path fill-rule="evenodd" clip-rule="evenodd" d="M231 0.626175H229V0.129395H231V0.626175Z" fill="#B0B0B0"/>
<path fill-rule="evenodd" clip-rule="evenodd" d="M236 0.626175H234V0.129395H236V0.626175Z" fill="#B0B0B0"/>
<path fill-rule="evenodd" clip-rule="evenodd" d="M241 0.626175H239V0.129395H241V0.626175Z" fill="#B0B0B0"/>
<path fill-rule="evenodd" clip-rule="evenodd" d="M246 0.626175H244V0.129395H246V0.626175Z" fill="#B0B0B0"/>
<path fill-rule="evenodd" clip-rule="evenodd" d="M251 0.626175H249V0.129395H251V0.626175Z" fill="#B0B0B0"/>
<path fill-rule="evenodd" clip-rule="evenodd" d="M256 0.626175H254V0.129395H256V0.626175Z" fill="#B0B0B0"/>
<path fill-rule="evenodd" clip-rule="evenodd" d="M260 0.626175H258V0.129395H260V0.626175Z" fill="#B0B0B0"/>
<path fill-rule="evenodd" clip-rule="evenodd" d="M265 0.626175H263V0.129395H265V0.626175Z" fill="#B0B0B0"/>
<path fill-rule="evenodd" clip-rule="evenodd" d="M270 0.626175H268V0.129395H270V0.626175Z" fill="#B0B0B0"/>
<path fill-rule="evenodd" clip-rule="evenodd" d="M275 0.626175H273V0.129395H275V0.626175Z" fill="#B0B0B0"/>
<path fill-rule="evenodd" clip-rule="evenodd" d="M280 0.626175H278V0.129395H280V0.626175Z" fill="#B0B0B0"/>
<path fill-rule="evenodd" clip-rule="evenodd" d="M285 0.626175H283V0.129395H285V0.626175Z" fill="#B0B0B0"/>
<path fill-rule="evenodd" clip-rule="evenodd" d="M290 0.626175H288V0.129395H290V0.626175Z" fill="#B0B0B0"/>
<path fill-rule="evenodd" clip-rule="evenodd" d="M295 0.626175H293V0.129395H295V0.626175Z" fill="#B0B0B0"/>
<path fill-rule="evenodd" clip-rule="evenodd" d="M299 0.626175H297V0.129395H299V0.626175Z" fill="#B0B0B0"/>
<path fill-rule="evenodd" clip-rule="evenodd" d="M304 0.626175H302V0.129395H304V0.626175Z" fill="#B0B0B0"/>
<path fill-rule="evenodd" clip-rule="evenodd" d="M309 0.626175H307V0.129395H309V0.626175Z" fill="#B0B0B0"/>
</svg>
