<svg viewBox="0 0 35 33" fill="none" xmlns="http://www.w3.org/2000/svg">
<path d="M33.9062 28.5317H18.5938C17.99 28.5317 17.5 28.0417 17.5 27.438C17.5 26.8342 17.5 6.16674 17.5 5.56299C17.5 4.95924 17.99 4.46924 18.5938 4.46924H33.9062C34.51 4.46924 35 4.95924 35 5.56299V27.438C35 28.0417 34.51 28.5317 33.9062 28.5317Z" fill="#ECEFF1"/>
<path d="M22.9688 11.0317H18.5938C17.99 11.0317 17.5 10.5417 17.5 9.93799C17.5 9.33424 17.99 8.84424 18.5938 8.84424H22.9688C23.5725 8.84424 24.0625 9.33424 24.0625 9.93799C24.0625 10.5417 23.5725 11.0317 22.9688 11.0317Z" fill="#42BA47"/>
<path d="M22.9688 15.4067H18.5938C17.99 15.4067 17.5 14.9167 17.5 14.313C17.5 13.7092 17.99 13.2192 18.5938 13.2192H22.9688C23.5725 13.2192 24.0625 13.7092 24.0625 14.313C24.0625 14.9167 23.5725 15.4067 22.9688 15.4067Z" fill="#42BA47"/>
<path d="M22.9688 19.7817H18.5938C17.99 19.7817 17.5 19.2917 17.5 18.688C17.5 18.0842 17.99 17.5942 18.5938 17.5942H22.9688C23.5725 17.5942 24.0625 18.0842 24.0625 18.688C24.0625 19.2917 23.5725 19.7817 22.9688 19.7817Z" fill="#42BA47"/>
<path d="M22.9688 24.1567H18.5938C17.99 24.1567 17.5 23.6667 17.5 23.063C17.5 22.4592 17.99 21.9692 18.5938 21.9692H22.9688C23.5725 21.9692 24.0625 22.4592 24.0625 23.063C24.0625 23.6667 23.5725 24.1567 22.9688 24.1567Z" fill="#42BA47"/>
<path d="M29.5312 11.0317H27.3438C26.74 11.0317 26.25 10.5417 26.25 9.93799C26.25 9.33424 26.74 8.84424 27.3438 8.84424H29.5312C30.135 8.84424 30.625 9.33424 30.625 9.93799C30.625 10.5417 30.135 11.0317 29.5312 11.0317Z" fill="#42BA47"/>
<path d="M29.5312 15.4067H27.3438C26.74 15.4067 26.25 14.9167 26.25 14.313C26.25 13.7092 26.74 13.2192 27.3438 13.2192H29.5312C30.135 13.2192 30.625 13.7092 30.625 14.313C30.625 14.9167 30.135 15.4067 29.5312 15.4067Z" fill="#42BA47"/>
<path d="M29.5312 19.7817H27.3438C26.74 19.7817 26.25 19.2917 26.25 18.688C26.25 18.0842 26.74 17.5942 27.3438 17.5942H29.5312C30.135 17.5942 30.625 18.0842 30.625 18.688C30.625 19.2917 30.135 19.7817 29.5312 19.7817Z" fill="#42BA47"/>
<path d="M29.5312 24.1567H27.3438C26.74 24.1567 26.25 23.6667 26.25 23.063C26.25 22.4592 26.74 21.9692 27.3438 21.9692H29.5312C30.135 21.9692 30.625 22.4592 30.625 23.063C30.625 23.6667 30.135 24.1567 29.5312 24.1567Z" fill="#42BA47"/>
<path d="M19.2916 0.34581C19.0422 0.137997 18.7075 0.0483098 18.3925 0.113935L0.8925 3.39518C0.374062 3.49144 0 3.94206 0 4.46925V28.5317C0 29.0567 0.374062 29.5096 0.8925 29.6058L18.3925 32.8871C18.4581 32.9002 18.5259 32.9067 18.5938 32.9067C18.8475 32.9067 19.0947 32.8192 19.2916 32.6552C19.5431 32.4474 19.6875 32.1367 19.6875 31.813V1.188C19.6875 0.86206 19.5431 0.553622 19.2916 0.34581Z" fill="#48A94D"/>
<path d="M15.0412 20.1557L11.5827 16.2029L15.0805 11.7054C15.4524 11.2285 15.3649 10.5417 14.8902 10.1698C14.4155 9.7979 13.7287 9.8854 13.3546 10.3601L10.1149 14.5251L7.3849 11.4057C6.98459 10.9463 6.29334 10.9048 5.84272 11.3029C5.38772 11.701 5.34178 12.3923 5.7399 12.8451L8.74772 16.2838L5.69834 20.2038C5.32647 20.6807 5.41397 21.3676 5.88865 21.7395C6.0899 21.8948 6.32834 21.9692 6.5624 21.9692C6.88834 21.9692 7.2099 21.8248 7.42647 21.547L10.2155 17.9595L13.3962 21.5929C13.6127 21.8423 13.9146 21.9692 14.2187 21.9692C14.4746 21.9692 14.7305 21.8795 14.9383 21.6979C15.3933 21.2998 15.4393 20.6085 15.0412 20.1557Z" fill="#FCFCFC"/>
</svg>
