<svg xmlns="http://www.w3.org/2000/svg" xmlns:xlink="http://www.w3.org/1999/xlink" viewBox="0 0 35 33" fill="none" xmlns="http://www.w3.org/2000/svg"><path d="M33.906 28.532H18.594c-.604 0-1.094-.49-1.094-1.094V5.563c0-.604.49-1.094 1.094-1.094h15.312c.604 0 1.094.49 1.094 1.094v21.875c0 .604-.49 1.094-1.094 1.094z" fill="#eceff1"/><g fill="#42ba47"><use xlink:href="#B"/><use xlink:href="#B" y="4.375"/><use xlink:href="#B" y="8.75"/><use xlink:href="#B" y="13.125"/><use xlink:href="#C"/><use xlink:href="#C" y="4.375"/><use xlink:href="#C" y="8.75"/><use xlink:href="#C" y="13.125"/></g><path d="M19.292.346c-.249-.208-.584-.298-.899-.232L.893 3.395A1.09 1.09 0 0 0 0 4.469v24.062c0 .525.374.978.893 1.074l17.5 3.281a1.03 1.03 0 0 0 .201.02 1.09 1.09 0 0 0 .698-.252c.252-.208.396-.519.396-.842V1.188a1.09 1.09 0 0 0-.396-.842z" fill="#48a94d"/><path d="M15.041 20.156l-3.458-3.953 3.498-4.498c.372-.477.284-1.164-.19-1.536s-1.162-.284-1.536.19l-3.24 4.165-2.73-3.119a1.09 1.09 0 1 0-1.645 1.439l3.008 3.439-3.049 3.92c-.372.477-.284 1.164.19 1.536a1.1 1.1 0 0 0 .674.23 1.09 1.09 0 0 0 .864-.422l2.789-3.588 3.181 3.633c.216.249.518.376.822.376a1.09 1.09 0 0 0 .822-1.814z" fill="#fcfcfc"/><defs ><path id="B" d="M22.969 11.032h-4.375c-.604 0-1.094-.49-1.094-1.094s.49-1.094 1.094-1.094h4.375c.604 0 1.094.49 1.094 1.094s-.49 1.094-1.094 1.094z"/><path id="C" d="M29.531 11.032h-2.187c-.604 0-1.094-.49-1.094-1.094s.49-1.094 1.094-1.094h2.187c.604 0 1.094.49 1.094 1.094s-.49 1.094-1.094 1.094z"/></defs></svg>