<svg width="24" height="23" viewBox="0 0 24 23" fill="none" xmlns="http://www.w3.org/2000/svg">
<path d="M23.3498 1.2794C23.3498 0.572798 22.777 0 22.0704 0H1.2795C1.01604 0 0.758935 0.0813828 0.543453 0.232934C-0.0345026 0.639428 -0.173459 1.43754 0.233035 2.0155L7.77129 12.7327L7.79246 20.5296C7.79378 21.0163 7.93849 21.4918 8.20843 21.8968C8.9672 23.035 10.505 23.3425 11.6432 22.5838L14.3357 20.7888C15.051 20.3119 15.4791 19.5076 15.4751 18.6479L15.4477 12.7799L23.1124 2.0218C23.2668 1.805 23.3498 1.54549 23.3498 1.2794ZM12.8852 11.9668L12.9163 18.6597L10.351 20.37L10.328 11.9198L3.74365 2.55879H19.588L12.8852 11.9668Z" fill="#BFD4DF"/>
</svg>
