<svg viewBox="0 0 22 24" fill="none" xmlns="http://www.w3.org/2000/svg">
<path fill-rule="evenodd" clip-rule="evenodd" d="M20.2612 11.9447H12.3054V6.88777H9.69214V11.9447H1.73882C0.778268 11.9447 0 11.1398 0 10.1458V8.61499C0 7.6219 0.778268 6.81612 1.73882 6.81612H5.07913C4.59261 6.58134 4.18683 6.33705 3.94627 6.0863C2.60033 4.69442 2.60033 2.43676 3.94627 1.04402C4.61883 0.347863 5.50114 0 6.38304 0C7.26619 0 8.14725 0.347863 8.82023 1.04402C9.38416 1.6271 9.92687 3.07379 10.3676 4.55847C10.5715 4.5002 10.7825 4.45963 11.004 4.45963C11.2258 4.45963 11.4368 4.5002 11.6416 4.55847C12.0806 3.0876 12.6183 1.6599 13.1773 1.082C13.8498 0.385843 14.7321 0.0375484 15.614 0.03798C16.4959 0.03798 17.3783 0.385843 18.0521 1.082C19.3976 2.47431 19.3976 4.7324 18.0521 6.12428C17.8232 6.36122 17.4448 6.59213 16.9941 6.81612H20.2612C21.2217 6.81612 22 7.62147 22 8.61499V10.1458C22 11.1398 21.2217 11.9447 20.2612 11.9447ZM7.58748 2.31765C7.26702 1.98532 6.83918 1.80233 6.38304 1.80233C5.92815 1.80233 5.49948 1.98575 5.17777 2.31851C4.51354 3.00603 4.51354 4.12472 5.17777 4.81267C5.53777 5.16356 6.95571 5.71384 8.70619 6.22398C8.75572 6.06084 8.81856 5.90589 8.89764 5.75872C8.41944 4.04487 7.91544 2.6763 7.58748 2.31765ZM17.3187 3.60336C17.3187 3.13206 17.1419 2.68925 16.8206 2.35606C16.498 2.0233 16.0702 1.83987 15.614 1.83987C15.1592 1.83987 14.7305 2.0233 14.4092 2.35606C14.0841 2.71169 13.5856 4.063 13.1107 5.75959C13.1948 5.91625 13.2613 6.08155 13.3105 6.25635C15.053 5.74621 16.4622 5.19938 16.8222 4.84806C17.1419 4.51747 17.3187 4.07465 17.3187 3.60336ZM9.69214 23.1579H2.30525C1.34511 23.1579 0.565597 22.3525 0.565597 21.3577V13.864H9.69214V23.1579ZM3.59044 16.8437C3.59044 16.4708 3.29786 16.1678 2.93744 16.1678C2.57661 16.1678 2.28403 16.4708 2.28403 16.8437V20.5938C2.28403 20.9667 2.57661 21.2693 2.93744 21.2693C3.29786 21.2693 3.59044 20.9667 3.59044 20.5938V16.8437ZM21.4352 21.3577C21.4348 22.3525 20.6561 23.1579 19.6956 23.1579H12.3054V13.864H21.4348L21.4352 21.3577Z" fill="#1FC1EF"/>
</svg>
