<svg xmlns="http://www.w3.org/2000/svg" viewBox="0 0 22 24" fill="none" xmlns="http://www.w3.org/2000/svg"><path fill-rule="evenodd" d="M20.261 11.945h-7.956V6.888H9.692v5.057H1.739C.778 11.945 0 11.14 0 10.146V8.615c0-.993.778-1.799 1.739-1.799h3.34c-.487-.235-.892-.479-1.133-.73-1.346-1.392-1.346-3.65 0-5.042C4.619.348 5.501 0 6.383 0S8.147.348 8.82 1.044c.564.583 1.107 2.03 1.547 3.514.204-.058.415-.099.636-.099s.433.041.638.099c.439-1.471.977-2.899 1.536-3.476C13.85.386 14.732.038 15.614.038a3.38 3.38 0 0 1 2.438 1.044c1.346 1.392 1.346 3.65 0 5.042-.229.237-.607.468-1.058.692h3.267c.96 0 1.739.805 1.739 1.799v1.531c0 .994-.778 1.799-1.739 1.799zM7.587 2.318a1.66 1.66 0 0 0-1.204-.515c-.455 0-.884.183-1.205.516a1.81 1.81 0 0 0 0 2.494c.36.351 1.778.901 3.528 1.411a2.53 2.53 0 0 1 .191-.465c-.478-1.714-.982-3.082-1.31-3.441zm9.731 1.286c0-.471-.177-.914-.498-1.247a1.67 1.67 0 0 0-1.207-.516c-.455 0-.884.183-1.205.516-.325.356-.824 1.707-1.299 3.404a2.45 2.45 0 0 1 .2.497c1.743-.51 3.152-1.057 3.512-1.408a1.78 1.78 0 0 0 .497-1.245zM9.692 23.158H2.305c-.96 0-1.74-.805-1.74-1.8v-7.494h9.127v9.294zM3.59 16.844c0-.373-.293-.676-.653-.676s-.653.303-.653.676v3.75c0 .373.293.675.653.675s.653-.303.653-.675v-3.75zm17.845 4.514c0 .995-.779 1.8-1.74 1.8h-7.39v-9.294h9.129v7.494z" fill="#1fc1ef"/></svg>