<svg xmlns="http://www.w3.org/2000/svg" width="335" height="118" fill="none" xmlns="http://www.w3.org/2000/svg"><mask id="A" mask-type="alpha" maskUnits="userSpaceOnUse" x="0" y="0" width="335" height="118"><rect width="335" height="118" rx="14" fill="#fff"/></mask><g mask="url(#A)"><path opacity=".05" fill-rule="evenodd" d="M372.373 99.125v6.91h-32.572v-49.81h32.331v6.974H348.46v13.755h20.455v6.845H348.46v15.327h23.913zM222.258 18.178h148.906v9.828H222.258v-9.828zm17.495 37.362c5.547 0 9.95 1.371 13.207 4.12 3.265 2.749 5.224 6.7 5.885 11.852h-8.481c-.96-5.999-4.435-8.998-10.433-8.998-3.878 0-6.829 1.395-8.845 4.193-2.023 2.79-3.064 6.885-3.136 12.287v3.822c0 5.378 1.137 9.554 3.41 12.529 2.266 2.975 5.418 4.459 9.458 4.459 4.426 0 7.57-1 9.441-3.007v-9.748h-10.264v-6.571h18.883v19.092c-1.798 2.346-4.298 4.128-7.49 5.337s-6.821 1.814-10.877 1.814c-4.176 0-7.869-.951-11.086-2.846-3.217-1.887-5.7-4.596-7.441-8.119s-2.653-7.635-2.717-12.336v-3.902c0-7.522 1.798-13.4 5.401-17.633s8.635-6.345 15.085-6.345zm39.878.685v49.81h-8.627v-49.81h8.627zm8.288 0h9.481l12.521 38.966 12.658-38.966h9.514l-17.931 49.81h-8.385l-17.858-49.81zm83.245 90.953H222.258v-9.828h148.906v9.828z" fill="url(#B)"/></g><defs><linearGradient id="B" x1="241.694" y1="128.294" x2="331.577" y2="21.599" gradientUnits="userSpaceOnUse"><stop stop-color="#ffc107"/><stop offset=".507" stop-color="#f44336"/><stop offset=".99" stop-color="#9c27b0"/></linearGradient></defs></svg>