<svg width="335" height="118" viewBox="0 0 335 118" fill="none" xmlns="http://www.w3.org/2000/svg">
<mask id="mask0" mask-type="alpha" maskUnits="userSpaceOnUse" x="0" y="0" width="335" height="118">
<rect width="335" height="118" rx="14" fill="white"/>
</mask>
<g mask="url(#mask0)">
<path opacity="0.05" fill-rule="evenodd" clip-rule="evenodd" d="M372.373 99.1252V106.035H339.801V56.2247H372.132V63.1987H348.46V76.9534H368.915V83.7984H348.46V99.1252H372.373ZM222.258 18.1777H371.164V28.0059H222.258V18.1777ZM239.753 55.5394C245.3 55.5394 249.703 56.91 252.96 59.6593C256.225 62.4086 258.184 66.3592 258.845 71.5112H250.364C249.404 65.5127 245.929 62.5134 239.931 62.5134C236.053 62.5134 233.102 63.9082 231.086 66.7059C229.063 69.4955 228.022 73.5913 227.95 78.9932V82.8148C227.95 88.1925 229.087 92.3689 231.36 95.3439C233.626 98.319 236.778 99.8025 240.818 99.8025C245.244 99.8025 248.388 98.8027 250.259 96.7952V87.0476H239.995V80.4767H258.878V99.5687C257.08 101.915 254.58 103.697 251.388 104.906C248.195 106.115 244.567 106.72 240.511 106.72C236.335 106.72 232.642 105.769 229.425 103.874C226.208 101.987 223.725 99.2784 221.984 95.7551C220.242 92.2318 219.331 88.1199 219.267 83.4195V79.5172C219.267 71.9949 221.065 66.1174 224.668 61.8845C228.272 57.6517 233.303 55.5394 239.753 55.5394ZM279.631 56.2247V106.035H271.004V56.2247H279.631ZM287.919 56.2247H297.4L309.921 95.1907L322.579 56.2247H332.093L314.162 106.035H305.777L287.919 56.2247ZM371.164 147.178H222.258V137.35H371.164V147.178Z" fill="url(#paint0_linear)"/>
</g>
<defs>
<linearGradient id="paint0_linear" x1="241.694" y1="128.294" x2="331.577" y2="21.5994" gradientUnits="userSpaceOnUse">
<stop stop-color="#FFC107"/>
<stop offset="0.507" stop-color="#F44336"/>
<stop offset="0.99" stop-color="#9C27B0"/>
</linearGradient>
</defs>
</svg>
