<svg viewBox="0 0 73 21" fill="none" xmlns="http://www.w3.org/2000/svg">
<path d="M1.2855 0.922852H0.904785V19.6089H1.2855V0.922852ZM58.6118 11.4001C58.5967 12.1041 58.4357 12.7971 58.1392 13.4346C57.7016 14.3702 56.7258 14.6571 56.3188 13.3199C56.1011 12.3442 56.0773 11.3347 56.2488 10.3497C56.4063 9.31257 56.8614 8.53142 57.6097 8.58438C58.358 8.63734 58.6906 9.61268 58.6118 11.3868V11.4001ZM46.1576 16.8108C46.1576 18.2628 45.9213 19.5338 45.4399 19.9001C44.7485 20.4253 43.8208 20.0281 44.0133 18.9733C44.184 18.0333 44.9848 17.08 46.1576 15.9105C46.1576 15.9105 46.1576 16.1753 46.1576 16.7932V16.8108ZM45.9694 11.3692C45.9408 12.0738 45.782 12.7667 45.5012 13.4125C45.0417 14.3482 44.0789 14.6395 43.6807 13.2978C43.4525 12.364 43.4271 11.3914 43.6063 10.4468C43.7814 9.47587 44.2059 8.57555 44.9673 8.57555C45.7287 8.57555 46.0744 9.39643 45.9694 11.3692ZM38.762 11.3692C38.75 12.0783 38.5921 12.7771 38.2982 13.4214C37.8212 14.3482 36.8847 14.6439 36.4777 13.3066C36.2412 12.326 36.2158 11.3057 36.4034 10.3144C36.5871 9.25961 37.0466 8.51818 37.7643 8.58438C38.482 8.65058 38.8583 9.61268 38.762 11.3692ZM71.7838 12.3489C71.6087 12.3489 71.5212 12.5387 71.4556 12.8521C71.2193 13.951 70.9698 14.1981 70.6504 14.1981C70.3309 14.1981 69.9721 13.6553 69.8889 12.5652C69.827 11.2416 69.8372 9.91563 69.9196 8.5932C69.9196 8.27544 69.8495 7.95327 68.9918 7.63993C68.6243 7.50753 68.0904 7.30893 67.8234 7.95768C67.2892 9.19794 66.9128 10.5014 66.7032 11.837C66.7032 11.8679 66.6638 11.8723 66.6594 11.8017C66.553 10.7578 66.5018 9.70883 66.5062 8.6594C66.5186 8.48273 66.4811 8.30615 66.3983 8.14998C66.3155 7.99382 66.1906 7.86444 66.038 7.77674C65.7886 7.61786 65.0315 7.33541 64.7558 7.66641C64.4019 8.25427 64.1337 8.89042 63.9594 9.55531C63.7274 10.2659 63.5655 10.7513 63.5655 10.7513C63.5655 10.7513 63.5655 8.83152 63.5655 8.10332C63.5733 8.02147 63.5539 7.93932 63.5103 7.86981C63.4668 7.8003 63.4015 7.74738 63.3248 7.71936C63.0097 7.62156 62.6857 7.55504 62.3577 7.52077C62.0952 7.52077 62.0339 7.66641 62.0339 7.88266C62.0339 7.90914 61.9901 10.4115 61.9901 12.1548V12.3975C61.8501 13.2007 61.3775 14.2952 60.8699 14.2952C60.3623 14.2952 60.1172 13.8539 60.1172 11.7531C60.1172 10.5395 60.1522 10.0099 60.1697 9.13163C60.1697 8.6241 60.2003 8.24896 60.2003 8.14746C60.2003 7.87824 59.7321 7.74143 59.5133 7.70612C59.3332 7.65955 59.1478 7.63729 58.9619 7.63993C58.9162 7.63875 58.8706 7.64676 58.8279 7.66348C58.7853 7.6802 58.7463 7.7053 58.7133 7.73732C58.6804 7.76935 58.654 7.80766 58.6358 7.85003C58.6177 7.89241 58.608 7.938 58.6075 7.98416V8.27544C58.3789 7.89327 58.0311 7.59837 57.6185 7.43691C57.2137 7.31211 56.7792 7.3263 56.3833 7.47724C55.9873 7.62819 55.6522 7.90737 55.4304 8.27103C54.9139 9.03007 54.6114 9.91631 54.5552 10.8352C54.4662 11.6137 54.4987 12.4014 54.6515 13.1698C54.4677 13.951 54.1351 14.2776 53.7763 14.2776C53.2424 14.2776 52.8617 13.3949 52.9011 11.8855C52.9568 10.9713 53.1034 10.0649 53.3387 9.18017C53.3913 9.03113 53.4032 8.87056 53.3732 8.71528C53.3431 8.56 53.2723 8.41571 53.168 8.29751C53.0203 8.17764 52.8443 8.09838 52.6572 8.06745C52.4701 8.03651 52.2782 8.05495 52.1003 8.12098C51.7283 8.21366 51.19 8.30634 50.6999 8.38136C50.7248 8.27235 50.7423 8.16176 50.7524 8.05036C50.8793 6.95145 49.6934 7.03971 49.3127 7.39278C49.0544 7.62449 48.8972 7.94959 48.8751 8.29751C48.8476 8.49894 48.8779 8.70411 48.9624 8.8887C49.047 9.0733 49.1822 9.22959 49.3521 9.33905C49.1117 10.3267 48.733 11.2748 48.2275 12.1548C48.0161 12.5377 47.7823 12.9076 47.5273 13.2625V12.8785C47.5273 11.0558 47.5273 9.62151 47.5579 9.10515C47.5885 8.58879 47.5886 8.22248 47.5886 8.1298C47.5886 7.93562 47.4704 7.85618 47.2297 7.76791C46.9997 7.67758 46.758 7.6211 46.512 7.60021C46.1882 7.57814 45.9869 7.75026 45.9957 7.95768V8.23572C45.761 7.86774 45.4161 7.58482 45.0111 7.42809C44.6063 7.3025 44.1716 7.31631 43.7754 7.46732C43.3793 7.61834 43.0442 7.89799 42.823 8.2622C42.3245 9.027 42.0236 9.90545 41.9478 10.8175C41.8599 11.5515 41.8747 12.2943 41.9916 13.0242C41.869 13.6332 41.5146 14.2776 41.1164 14.2776C40.6044 14.2776 40.3155 13.8362 40.3155 11.7355C40.3155 10.5218 40.3506 9.99222 40.3681 9.11397C40.3681 8.60644 40.3987 8.23131 40.3987 8.1298C40.3987 7.86059 39.9305 7.72378 39.7117 7.68847C39.526 7.63999 39.3345 7.61771 39.1428 7.62227C39.0574 7.62985 38.9772 7.66692 38.9158 7.72724C38.8544 7.78755 38.8156 7.86739 38.8058 7.95327V8.25779C38.5721 7.88897 38.2268 7.6058 37.8212 7.45015C37.4164 7.32535 36.9819 7.33954 36.586 7.49048C36.19 7.64143 35.8549 7.92061 35.6332 8.28427C35.107 9.03177 34.8034 9.91521 34.7579 10.8308C34.7134 11.1998 34.6915 11.5712 34.6923 11.9429C34.5348 12.9271 33.8171 14.0569 33.2526 14.0569C32.9156 14.0569 32.5918 13.3993 32.5918 11.9959C32.5918 10.1246 32.71 7.45898 32.7318 7.19859H33.6071C33.9703 7.19859 34.2985 7.19859 34.7798 7.19859C35.0249 7.19859 35.2568 6.31593 35.0074 6.19677C34.5989 6.13402 34.1865 6.10157 33.7733 6.09968C33.5064 6.09968 32.7668 6.03789 32.7668 6.03789C32.7668 6.03789 32.8325 4.27256 32.8456 4.08279C32.8587 3.89302 32.6618 3.84447 32.5437 3.79592C32.2787 3.68785 32.0029 3.60941 31.721 3.56202C31.3096 3.47375 31.1258 3.56202 31.0908 3.90626C31.0383 4.43144 31.0077 5.9761 31.0077 5.9761C30.7101 5.9761 29.6949 5.91873 29.3885 5.91873C29.0822 5.91873 28.7365 7.1015 29.1391 7.1015C29.5417 7.1015 30.3556 7.13239 30.8895 7.15005C30.8895 7.15005 30.8676 9.85983 30.8676 10.6807V10.9367C30.7015 11.817 30.2543 12.6184 29.5942 13.2184C29.8043 12.2386 29.371 11.5016 28.5877 10.8837C28.2989 10.6498 27.7125 10.2173 27.0911 9.74508C27.3823 9.41726 27.6174 9.04291 27.7869 8.63734C28.0188 8.11656 28.032 7.51194 27.4587 7.37954C27.0408 7.30208 26.6094 7.385 26.249 7.61202C25.8887 7.83904 25.6256 8.19374 25.5113 8.60644C25.4195 8.84915 25.3959 9.11269 25.443 9.36809C25.4901 9.62348 25.6061 9.86082 25.7783 10.054L25.8614 10.1555C25.647 10.566 25.3538 11.122 25.1087 11.5545C24.3998 12.7594 23.8835 13.7215 23.4852 13.7215C23.1745 13.7215 23.1789 12.7638 23.1789 11.8635C23.1789 11.0867 23.2358 9.92161 23.2796 8.71236C23.2852 8.53735 23.2392 8.3646 23.1472 8.21607C23.0553 8.06754 22.9216 7.94994 22.7632 7.87824C22.4998 7.69536 22.2019 7.56917 21.888 7.50753C21.516 7.50753 20.4351 7.55607 19.4199 10.5262C19.2886 10.9014 19.0392 11.581 19.0392 11.581V8.01064C19.038 7.96448 19.0238 7.91961 18.9982 7.8813C18.9726 7.843 18.9367 7.81285 18.8948 7.79439C18.5742 7.62291 18.2201 7.52496 17.8576 7.50753C17.6607 7.50753 17.5644 7.60021 17.5644 7.78115L17.5338 13.364C17.5253 13.7427 17.5414 14.1216 17.5819 14.4982C17.6093 14.678 17.675 14.8496 17.7745 15.0013C17.8575 15.1118 17.977 15.1886 18.1114 15.2176C18.2602 15.2485 19.0654 15.35 19.1092 15.0411C19.1893 14.2659 19.3492 13.5012 19.5862 12.7594C20.247 10.4159 21.1047 9.27727 21.5116 8.87124C21.5816 8.80063 21.6604 8.79622 21.6604 8.91096C21.6604 9.42732 21.5816 10.7072 21.5379 11.7973C21.4285 14.7145 21.9755 15.2529 22.7063 15.2529C23.2796 15.2529 24.0891 14.6748 24.96 13.2184C25.5026 12.3092 26.0277 11.4177 26.4084 10.7778C26.6666 11.0205 26.9642 11.2853 27.2836 11.5678C27.9707 12.2254 28.1982 12.8521 28.0451 13.4434C27.9313 13.8848 27.4981 14.3614 26.7323 13.9068C26.5091 13.7789 26.4172 13.6729 26.1896 13.5229C26.1251 13.4787 26.0489 13.455 25.9708 13.455C25.8928 13.455 25.8166 13.4787 25.752 13.5229C25.4789 13.73 25.2855 14.0264 25.205 14.3614C25.1175 14.6968 25.4501 14.8734 25.7958 15.0234C26.2254 15.1833 26.6773 15.2741 27.1349 15.2926C28.719 15.35 29.9837 14.5247 30.8676 12.3975C31.0252 14.2334 31.6991 15.275 32.8631 15.275C33.6464 15.275 34.4297 14.2555 34.7711 13.2537C34.8599 13.6294 35.0077 13.9885 35.2087 14.3173C36.1101 15.756 37.8343 15.4471 38.7095 14.2246C38.8347 14.0674 38.9405 13.8955 39.0246 13.7127C39.0511 14.1223 39.2265 14.5078 39.5171 14.7952C39.8078 15.0826 40.1933 15.2519 40.6 15.2706C41.1908 15.2706 41.799 14.9881 42.2279 14.0172C42.2781 14.1201 42.3336 14.2202 42.3942 14.3173C43.2694 15.756 45.0198 15.4471 45.895 14.2246L46.0044 14.0657L46.0307 14.8248L45.2211 15.5751C43.8689 16.824 42.8405 17.7817 42.7618 18.8807C42.6699 20.2885 43.7989 20.8137 44.661 20.8799C45.0903 20.9018 45.5177 20.8074 45.8987 20.6064C46.2796 20.4054 46.6002 20.1051 46.8271 19.7368C47.2647 19.1101 47.5273 17.7685 47.5054 16.4357C47.5054 15.9061 47.4835 15.2308 47.4704 14.5026C48.054 13.8496 48.5784 13.1451 49.037 12.3975C49.6161 11.4392 50.0886 10.4194 50.4461 9.35671C50.4461 9.35671 50.945 9.35671 51.4789 9.32581C51.6495 9.32581 51.702 9.35229 51.667 9.47587C51.632 9.59944 50.9931 12.1239 51.5751 13.7568C51.6903 14.1645 51.9272 14.5265 52.2538 14.7935C52.5804 15.0604 52.9806 15.2193 53.4 15.2485C53.7402 15.2185 54.0651 15.0919 54.337 14.8834C54.6088 14.6748 54.8165 14.3929 54.9359 14.0701C54.9753 14.1496 55.0147 14.2246 55.0585 14.2952C55.9337 15.734 57.6841 15.4206 58.5593 14.2025C58.6783 14.0419 58.7823 13.8705 58.87 13.6906C58.9108 14.1068 59.0994 14.4941 59.4009 14.7812C59.7025 15.0682 60.0967 15.2358 60.511 15.2529C61.0624 15.2529 61.5832 15.0234 62.0033 14.0172C62.0002 14.3256 62.031 14.6335 62.0952 14.9351C62.1214 15.0058 62.279 15.094 62.3884 15.1382C62.7767 15.2684 63.193 15.2883 63.5918 15.1955C63.7274 15.1691 63.8281 15.0675 63.8412 14.7895C63.8412 13.8393 63.9261 12.891 64.095 11.9562C64.2618 11.1206 64.5571 10.3165 64.9702 9.57296C65.0578 9.40967 65.1584 9.38319 65.1628 9.57296C65.1628 9.92161 65.189 10.9411 65.3291 12.318C65.3565 12.9306 65.473 13.5358 65.6748 14.1143C65.7613 14.2992 65.9023 14.4527 66.0785 14.5538C66.2547 14.6549 66.4576 14.6987 66.6594 14.6792C66.852 14.6792 67.2545 14.6218 67.2195 14.2776C67.2327 13.3696 67.3577 12.4668 67.5915 11.5898C67.7848 10.8453 68.041 10.1189 68.3573 9.41849C68.4098 9.30375 68.4317 9.39201 68.4317 9.41849C68.3492 10.7714 68.4079 12.1294 68.6067 13.4699C68.9743 15.094 70.0333 15.275 70.4009 15.275C71.1886 15.275 71.8363 14.6703 72.0507 13.0683C72.1076 12.6844 72.0288 12.3887 71.7925 12.3887L71.7838 12.3489ZM14.4662 3.56202C13.7028 3.93755 13.0319 4.4797 12.5021 5.14915C11.9723 5.8186 11.5968 6.59857 11.4029 7.4325C10.8559 9.78921 13.1534 10.7822 13.3153 10.46C13.4772 10.1379 12.9083 9.94368 12.7814 8.72119C12.637 7.1015 13.3634 5.33617 14.2955 4.57708C14.4662 4.43585 14.4574 4.63445 14.4574 5.01841C14.4574 5.68482 14.418 11.6384 14.418 12.8697C14.4693 13.7849 14.4046 14.7029 14.2255 15.6016C14.103 16.1356 13.9017 16.4842 14.0505 16.6343C14.1992 16.7843 14.9519 16.418 15.3633 15.8266C15.8435 15.0863 16.092 14.2176 16.0766 13.3331C16.116 12.221 16.1116 10.4424 16.116 9.43615C16.116 8.50494 16.116 5.79074 16.116 4.14016C16.116 3.74296 15.0044 3.3237 14.4881 3.53995" fill="#DA3B5A"/>
</svg>
