<svg xmlns="http://www.w3.org/2000/svg" viewBox="0 0 73 21" fill="none" xmlns="http://www.w3.org/2000/svg"><path d="M1.286.923H.905v18.686h.381V.923zM58.612 11.4c-.015.704-.176 1.397-.473 2.034-.438.936-1.413 1.223-1.82-.115a7.63 7.63 0 0 1-.07-2.97c.157-1.037.613-1.818 1.361-1.765s1.081 1.028 1.002 2.802v.013zm-12.454 5.411c0 1.452-.236 2.723-.718 3.089-.691.525-1.619.128-1.427-.927.171-.94.971-1.893 2.144-3.063v.883.018zm-.188-5.442c-.029.705-.187 1.398-.468 2.043-.459.936-1.422 1.227-1.82-.115a6.73 6.73 0 0 1-.074-2.851c.175-.971.6-1.871 1.361-1.871s1.107.821 1.002 2.794zm-7.207 0c-.012.709-.17 1.408-.464 2.052-.477.927-1.413 1.223-1.821-.115a7.12 7.12 0 0 1-.074-2.992c.184-1.055.643-1.796 1.361-1.73s1.094 1.028.998 2.785zm33.022.98c-.175 0-.263.19-.328.503-.236 1.099-.486 1.346-.805 1.346s-.678-.543-.761-1.633a36.47 36.47 0 0 1 .031-3.972c0-.318-.07-.64-.928-.953-.367-.132-.901-.331-1.168.318a16.13 16.13 0 0 0-1.12 3.879c0 .031-.039.035-.044-.035a29.76 29.76 0 0 1-.153-3.142c.012-.177-.025-.353-.108-.509s-.208-.286-.36-.373c-.249-.159-1.007-.441-1.282-.11-.354.588-.622 1.224-.796 1.889l-.394 1.196V8.103c.008-.082-.012-.164-.055-.234s-.109-.122-.185-.15c-.315-.098-.639-.164-.967-.199-.263 0-.324.146-.324.362l-.044 4.272v.243c-.14.803-.613 1.898-1.12 1.898s-.753-.441-.753-2.542l.053-2.621.031-.984c0-.269-.468-.406-.687-.441-.18-.047-.366-.069-.551-.066-.046-.001-.091.007-.134.024s-.082.042-.115.074a.35.35 0 0 0-.106.247v.291c-.229-.382-.576-.677-.989-.839-.405-.125-.839-.111-1.235.04s-.731.43-.953.794c-.517.759-.819 1.645-.875 2.564-.089.778-.056 1.566.096 2.335-.184.781-.516 1.108-.875 1.108-.534 0-.915-.883-.875-2.392a13.79 13.79 0 0 1 .438-2.705.89.89 0 0 0 .034-.465c-.03-.155-.101-.3-.205-.418-.148-.12-.324-.199-.511-.23a1.09 1.09 0 0 0-.557.054c-.372.093-.91.185-1.4.26a2.5 2.5 0 0 0 .053-.331c.127-1.099-1.059-1.011-1.44-.658a1.33 1.33 0 0 0-.438.905 1.07 1.07 0 0 0 .087.591 1.06 1.06 0 0 0 .39.45c-.24.988-.619 1.936-1.125 2.816-.211.383-.445.753-.7 1.108v-.384l.031-3.773.031-.975c0-.194-.118-.274-.359-.362-.23-.09-.472-.147-.718-.168-.324-.022-.525.15-.516.357v.278c-.235-.368-.58-.651-.985-.808-.405-.126-.84-.112-1.236.039a1.91 1.91 0 0 0-.952.795c-.498.765-.799 1.643-.875 2.555-.088.734-.073 1.477.044 2.207-.123.609-.477 1.253-.875 1.253-.512 0-.801-.441-.801-2.542l.053-2.622.031-.984c0-.269-.468-.406-.687-.441a2.06 2.06 0 0 0-.569-.066.37.37 0 0 0-.227.105c-.061.06-.1.14-.11.226v.305c-.234-.369-.579-.652-.985-.808-.405-.125-.839-.111-1.235.04s-.731.43-.953.794a4.84 4.84 0 0 0-.875 2.547c-.044.369-.066.74-.066 1.112-.158.984-.875 2.114-1.44 2.114-.337 0-.661-.658-.661-2.061l.14-4.797h.875 1.173c.245 0 .477-.883.228-1.002a8.38 8.38 0 0 0-1.234-.097c-.267 0-1.006-.062-1.006-.062l.079-1.955c.013-.19-.184-.238-.302-.287-.265-.108-.541-.187-.823-.234-.411-.088-.595 0-.63.344-.053.525-.083 2.07-.083 2.07-.298 0-1.313-.057-1.619-.057s-.652 1.183-.249 1.183l1.75.049-.022 3.531v.256c-.166.88-.613 1.682-1.273 2.282.21-.98-.223-1.717-1.006-2.335l-1.497-1.139c.291-.328.526-.702.696-1.108.232-.521.245-1.125-.328-1.258a1.69 1.69 0 0 0-1.21.232c-.36.227-.623.582-.738.994-.092.243-.115.506-.068.762s.163.493.335.686l.083.101-.753 1.399c-.709 1.205-1.225 2.167-1.623 2.167-.311 0-.306-.958-.306-1.858l.101-3.151a.89.89 0 0 0-.132-.496c-.092-.149-.226-.266-.384-.338-.263-.183-.561-.309-.875-.371-.372 0-1.453.049-2.468 3.019l-.381 1.055v-3.57c-.001-.046-.015-.091-.041-.129s-.062-.068-.103-.087a2.45 2.45 0 0 0-1.037-.287c-.197 0-.293.093-.293.274l-.031 5.583a8.77 8.77 0 0 0 .048 1.134c.027.18.093.351.193.503.083.111.203.187.337.216.149.031.954.132.998-.176a11.32 11.32 0 0 1 .477-2.282c.661-2.343 1.518-3.482 1.925-3.888.07-.071.149-.075.149.04l-.122 2.886c-.109 2.917.438 3.456 1.168 3.456.573 0 1.383-.578 2.254-2.034l1.448-2.441.875.79c.687.658.915 1.284.762 1.876-.114.441-.547.918-1.313.463-.223-.128-.315-.234-.543-.384-.064-.044-.141-.068-.219-.068s-.154.024-.219.068a1.49 1.49 0 0 0-.547.838c-.087.335.245.512.591.662a4.34 4.34 0 0 0 1.339.269c1.584.057 2.849-.768 3.733-2.895.158 1.836.832 2.877 1.996 2.877.783 0 1.567-1.02 1.908-2.021a3.65 3.65 0 0 0 .438 1.064c.901 1.439 2.626 1.13 3.501-.093.125-.157.231-.329.315-.512.026.41.202.795.492 1.082a1.65 1.65 0 0 0 1.083.475c.591 0 1.199-.283 1.628-1.253.05.103.106.203.166.3.875 1.439 2.626 1.13 3.501-.093l.109-.159.026.759-.81.75c-1.352 1.249-2.381 2.207-2.459 3.306-.092 1.408 1.037 1.933 1.899 1.999a2.39 2.39 0 0 0 1.238-.273c.381-.201.702-.501.928-.87.438-.627.7-1.968.678-3.301l-.035-1.933a14.67 14.67 0 0 0 1.567-2.105 15.33 15.33 0 0 0 1.409-3.041l1.033-.031c.171 0 .223.026.188.15s-.674 2.648-.092 4.281c.115.408.352.77.679 1.037s.727.426 1.146.455a1.8 1.8 0 0 0 .937-.365 1.82 1.82 0 0 0 .599-.813l.123.225c.875 1.439 2.626 1.125 3.501-.093.119-.161.223-.332.311-.512a1.74 1.74 0 0 0 .531 1.091c.302.287.696.455 1.11.472.551 0 1.072-.229 1.492-1.236-.003.308.028.616.092.918.026.071.184.159.293.203a2.21 2.21 0 0 0 1.203.057c.136-.026.236-.128.249-.406 0-.95.085-1.899.254-2.833a8.22 8.22 0 0 1 .875-2.383c.088-.163.188-.19.193 0 0 .349.026 1.368.166 2.745a6.31 6.31 0 0 0 .346 1.796.99.99 0 0 0 .404.44.98.98 0 0 0 .581.125c.193 0 .595-.057.56-.402a11.06 11.06 0 0 1 .372-2.688 13.55 13.55 0 0 1 .766-2.171c.053-.115.074-.026.074 0a19.52 19.52 0 0 0 .175 4.051c.368 1.624 1.427 1.805 1.794 1.805.788 0 1.435-.605 1.65-2.207.057-.384-.022-.68-.258-.68l-.009-.04zM14.466 3.562a5.73 5.73 0 0 0-1.964 1.587c-.53.669-.905 1.449-1.099 2.283-.547 2.357 1.75 3.35 1.912 3.028s-.407-.516-.534-1.739c-.144-1.62.582-3.385 1.514-4.144.171-.141.162.057.162.441l-.039 7.851c.051.915-.013 1.833-.192 2.732-.123.534-.324.883-.175 1.033s.901-.216 1.313-.808a4.44 4.44 0 0 0 .713-2.493l.039-3.897V4.14c0-.397-1.112-.816-1.628-.6" fill="#da3b5a"/></svg>