<svg xmlns="http://www.w3.org/2000/svg" width="335" height="118" fill="none" xmlns="http://www.w3.org/2000/svg"><mask id="A" mask-type="alpha" maskUnits="userSpaceOnUse" x="0" y="0" width="335" height="118"><rect width="335" height="118" rx="14" fill="#fff"/></mask><g mask="url(#A)"><g opacity=".03"><path d="M311.272 17.897h-52.544C237.373 17.897 220 35.158 220 56.375v52.206c0 21.217 17.373 38.478 38.728 38.478h52.544c21.355 0 38.728-17.261 38.728-38.478V56.375c0-21.217-17.373-38.478-38.728-38.478zm25.65 90.685c0 14.074-11.484 25.484-25.65 25.484h-52.544c-14.166 0-25.65-11.41-25.65-25.484V56.375c0-14.075 11.484-25.484 25.65-25.484h52.544c14.166 0 25.65 11.41 25.65 25.484v52.206z" fill="url(#B)"/><path d="M285 49.071c-18.54 0-33.623 14.986-33.623 33.406S266.46 115.883 285 115.883s33.623-14.986 33.623-33.406S303.54 49.071 285 49.071zm0 53.818c-11.347 0-20.545-9.138-20.545-20.412S273.654 62.065 285 62.065s20.545 9.139 20.545 20.412-9.199 20.412-20.545 20.412z" fill="url(#C)"/><path d="M318.688 57.327c4.449 0 8.056-3.584 8.056-8.005s-3.607-8.005-8.056-8.005-8.057 3.584-8.057 8.005 3.607 8.005 8.057 8.005z" fill="url(#D)"/></g></g><defs><linearGradient id="B" x1="239.043" y1="128.151" x2="330.363" y2="36.226" gradientUnits="userSpaceOnUse"><stop stop-color="#ffc107"/><stop offset=".507" stop-color="#f44336"/><stop offset=".99" stop-color="#9c27b0"/></linearGradient><linearGradient id="C" x1="261.228" y1="106.103" x2="308.465" y2="58.553" gradientUnits="userSpaceOnUse"><stop stop-color="#ffc107"/><stop offset=".507" stop-color="#f44336"/><stop offset=".99" stop-color="#9c27b0"/></linearGradient><linearGradient id="D" x1="312.991" y1="54.983" x2="324.31" y2="43.589" gradientUnits="userSpaceOnUse"><stop stop-color="#ffc107"/><stop offset=".507" stop-color="#f44336"/><stop offset=".99" stop-color="#9c27b0"/></linearGradient></defs></svg>