<svg width="335" height="118" viewBox="0 0 335 118" fill="none" xmlns="http://www.w3.org/2000/svg">
<mask id="mask0" mask-type="alpha" maskUnits="userSpaceOnUse" x="0" y="0" width="335" height="118">
<rect width="335" height="118" rx="14" fill="white"/>
</mask>
<g mask="url(#mask0)">
<g opacity="0.03">
<path d="M311.272 17.8965H258.728C237.373 17.8965 220 35.1577 220 56.3746V108.581C220 129.798 237.373 147.059 258.728 147.059H311.272C332.627 147.059 350 129.798 350 108.581V56.3746C350 35.1577 332.627 17.8965 311.272 17.8965ZM336.922 108.581C336.922 122.655 325.438 134.065 311.272 134.065H258.728C244.562 134.065 233.078 122.655 233.078 108.581V56.3746C233.078 42.2999 244.562 30.8902 258.728 30.8902H311.272C325.438 30.8902 336.922 42.2999 336.922 56.3746V108.581Z" fill="url(#paint0_linear)"/>
<path d="M285 49.0713C266.46 49.0713 251.377 64.0572 251.377 82.477C251.377 100.897 266.46 115.883 285 115.883C303.54 115.883 318.623 100.897 318.623 82.477C318.623 64.0569 303.54 49.0713 285 49.0713ZM285 102.889C273.653 102.889 264.455 93.7507 264.455 82.4772C264.455 71.2038 273.654 62.065 285 62.065C296.347 62.065 305.545 71.2038 305.545 82.4772C305.545 93.7505 296.346 102.889 285 102.889Z" fill="url(#paint1_linear)"/>
<path d="M318.688 57.3269C323.137 57.3269 326.744 53.743 326.744 49.3221C326.744 44.9012 323.137 41.3174 318.688 41.3174C314.238 41.3174 310.631 44.9012 310.631 49.3221C310.631 53.743 314.238 57.3269 318.688 57.3269Z" fill="url(#paint2_linear)"/>
</g>
</g>
<defs>
<linearGradient id="paint0_linear" x1="239.043" y1="128.151" x2="330.363" y2="36.2261" gradientUnits="userSpaceOnUse">
<stop stop-color="#FFC107"/>
<stop offset="0.507" stop-color="#F44336"/>
<stop offset="0.99" stop-color="#9C27B0"/>
</linearGradient>
<linearGradient id="paint1_linear" x1="261.228" y1="106.103" x2="308.465" y2="58.5525" gradientUnits="userSpaceOnUse">
<stop stop-color="#FFC107"/>
<stop offset="0.507" stop-color="#F44336"/>
<stop offset="0.99" stop-color="#9C27B0"/>
</linearGradient>
<linearGradient id="paint2_linear" x1="312.991" y1="54.9833" x2="324.31" y2="43.5893" gradientUnits="userSpaceOnUse">
<stop stop-color="#FFC107"/>
<stop offset="0.507" stop-color="#F44336"/>
<stop offset="0.99" stop-color="#9C27B0"/>
</linearGradient>
</defs>
</svg>
