<svg width="335" height="118" viewBox="0 0 335 118" fill="none" xmlns="http://www.w3.org/2000/svg">
<mask id="mask0" mask-type="alpha" maskUnits="userSpaceOnUse" x="0" y="0" width="335" height="118">
<rect width="335" height="118" rx="14" fill="white"/>
</mask>
<g mask="url(#mask0)">
<path opacity="0.05" d="M282.914 115.834C282.64 115.804 282.419 115.856 282.315 115.76C273.323 107.551 264.094 99.5707 255.457 91.007C250.048 85.6501 246.915 78.8744 247.558 70.8723C248.186 62.944 252.981 56.7152 260.378 54.2842C268.262 51.6907 275.754 53.7153 281.074 59.8628C281.525 60.3801 281.961 60.8973 282.64 61.6953C286.704 56.294 291.699 53.1094 298.423 53.2719C309.706 53.5379 318.114 63.1878 317.509 75.0544C317.146 82.1329 313.873 87.9037 308.982 92.5956C301.874 99.4082 294.352 105.8 286.992 112.354C285.64 113.558 284.244 114.703 282.914 115.834ZM325.814 76.8647C333.535 76.8647 341.271 76.8647 349 76.8647C349 79.9828 349 83.0935 349 86.2116C348.837 86.8766 348.601 87.5342 348.52 88.2066C345.586 114.326 326.427 137.069 301.09 144.281C296.886 145.478 292.512 146.106 288.212 147C284.406 147 280.594 147 276.788 147C276.212 146.845 275.643 146.616 275.059 146.549C248.356 143.483 225.857 124.442 218.601 98.6102C217.463 94.5537 216.85 90.3494 216 86.2116C216 82.4063 216 78.5937 216 74.781C216.163 74.116 216.392 73.4584 216.473 72.786C219.783 44.6343 240.923 21.4111 268.668 15.5073C271.358 14.931 274.077 14.4951 276.788 14C280.594 14 284.406 14 288.212 14C291.921 14.7611 295.667 15.3669 299.325 16.3275C307.607 18.4998 315.115 22.3568 322.37 27.6768C325.09 24.7508 327.772 21.8618 330.882 18.5146C335.05 31.0166 339.01 42.8979 343.2 55.4591C330.69 51.2917 318.809 47.3387 306.388 43.2009C310.024 39.7577 313.319 36.6396 316.836 33.3072C307.474 26.6867 297.751 22.8814 286.52 22.0391C286.52 27.1153 286.52 32.0806 286.52 37.2085C283.8 37.2085 281.421 37.2085 278.687 37.2085C278.687 32.3023 278.687 27.3443 278.687 22.3938C252.501 22.4972 225.14 46.8141 224.29 76.5543C229.189 76.5543 234.095 76.5543 239.186 76.5543C239.186 79.2439 239.186 81.6896 239.186 84.3939C234.228 84.3939 229.322 84.3939 224.423 84.3939C224.379 110.425 248.918 137.904 278.569 138.68C278.569 134.565 278.569 130.456 278.569 126.171C281.244 126.171 283.623 126.171 286.305 126.171C286.305 130.345 286.305 134.454 286.305 138.555C309.366 138.902 339.062 117.444 340.887 84.4752C335.922 84.4752 330.956 84.4752 325.814 84.4752C325.814 81.8004 325.814 79.4212 325.814 76.8647Z" fill="url(#paint0_linear)"/>
</g>
<defs>
<linearGradient id="paint0_linear" x1="235.482" y1="127.53" x2="329.518" y2="33.4821" gradientUnits="userSpaceOnUse">
<stop stop-color="#FFC107"/>
<stop offset="0.507" stop-color="#F44336"/>
<stop offset="0.99" stop-color="#9C27B0"/>
</linearGradient>
</defs>
</svg>
