<svg xmlns="http://www.w3.org/2000/svg" width="335" height="118" fill="none" xmlns="http://www.w3.org/2000/svg"><mask id="A" mask-type="alpha" maskUnits="userSpaceOnUse" x="0" y="0" width="335" height="118"><rect width="335" height="118" rx="14" fill="#fff"/></mask><g mask="url(#A)"><path opacity=".05" d="M282.914 115.834c-.274-.03-.495.022-.599-.074-8.992-8.209-18.221-16.189-26.858-24.753-5.409-5.357-8.542-12.133-7.899-20.135.628-7.928 5.423-14.157 12.82-16.588 7.884-2.593 15.376-.569 20.696 5.579l1.566 1.833c4.064-5.401 9.059-8.586 15.783-8.423 11.283.266 19.691 9.916 19.086 21.783-.363 7.079-3.636 12.849-8.527 17.541-7.108 6.813-14.63 13.204-21.99 19.758-1.352 1.204-2.748 2.349-4.078 3.48zm42.9-38.969H349v9.347c-.163.665-.399 1.323-.48 1.995-2.934 26.119-22.093 48.862-47.43 56.074-4.204 1.197-8.578 1.825-12.878 2.719h-11.424c-.576-.155-1.145-.384-1.729-.451-26.703-3.066-49.202-22.107-56.458-47.939-1.138-4.056-1.751-8.261-2.601-12.399V74.781c.163-.665.392-1.323.473-1.995 3.31-28.152 24.45-51.375 52.195-57.279 2.69-.576 5.409-1.012 8.12-1.507h11.424c3.709.761 7.455 1.367 11.113 2.328 8.282 2.172 15.79 6.029 23.045 11.349l8.512-9.162L343.2 55.459l-36.812-12.258 10.448-9.894c-9.362-6.621-19.085-10.426-30.316-11.268v15.169h-7.833V22.394c-26.186.103-53.547 24.42-54.397 54.161h14.896v7.84h-14.763c-.044 26.031 24.495 53.51 54.146 54.286v-12.509h7.736v12.384c23.061.347 52.757-21.111 54.582-54.08h-15.073v-7.611z" fill="url(#B)"/></g><defs><linearGradient id="B" x1="235.482" y1="127.53" x2="329.518" y2="33.482" gradientUnits="userSpaceOnUse"><stop stop-color="#ffc107"/><stop offset=".507" stop-color="#f44336"/><stop offset=".99" stop-color="#9c27b0"/></linearGradient></defs></svg>