<svg viewBox="0 0 21 21" fill="none" xmlns="http://www.w3.org/2000/svg">
<circle cx="10.5" cy="10.5" r="10.5" fill="#36B5B2"/>
<path d="M9.71094 12.8413C9.71094 12.1121 9.79948 11.5314 9.97656 11.0991C10.1536 10.6668 10.4766 10.2424 10.9453 9.82568C11.4193 9.40381 11.7344 9.06266 11.8906 8.80225C12.0469 8.53662 12.125 8.25798 12.125 7.96631C12.125 7.0861 11.7188 6.646 10.9062 6.646C10.5208 6.646 10.2109 6.76579 9.97656 7.00537C9.7474 7.23975 9.6276 7.56527 9.61719 7.98193H7.35156C7.36198 6.98714 7.68229 6.2085 8.3125 5.646C8.94792 5.0835 9.8125 4.80225 10.9062 4.80225C12.0104 4.80225 12.8672 5.07048 13.4766 5.60693C14.0859 6.13818 14.3906 6.89079 14.3906 7.86475C14.3906 8.30745 14.2917 8.72673 14.0938 9.12256C13.8958 9.51318 13.5495 9.94808 13.0547 10.4272L12.4219 11.0288C12.026 11.409 11.7995 11.8543 11.7422 12.3647L11.7109 12.8413H9.71094ZM9.48438 15.2397C9.48438 14.8908 9.60156 14.6043 9.83594 14.3804C10.0755 14.1512 10.3802 14.0366 10.75 14.0366C11.1198 14.0366 11.4219 14.1512 11.6562 14.3804C11.8958 14.6043 12.0156 14.8908 12.0156 15.2397C12.0156 15.5835 11.8984 15.8674 11.6641 16.0913C11.4349 16.3153 11.1302 16.4272 10.75 16.4272C10.3698 16.4272 10.0625 16.3153 9.82812 16.0913C9.59896 15.8674 9.48438 15.5835 9.48438 15.2397Z" fill="white"/>
</svg>
