<svg xmlns="http://www.w3.org/2000/svg" viewBox="0 0 21 21" fill="none" xmlns="http://www.w3.org/2000/svg"><circle cx="10.5" cy="10.5" r="10.5" fill="#36b5b2"/><path d="M9.711 12.841c0-.729.089-1.31.266-1.742s.5-.857.969-1.273c.474-.422.789-.763.945-1.023.156-.266.234-.544.234-.836 0-.88-.406-1.32-1.219-1.32-.385 0-.695.12-.93.359-.229.234-.349.56-.359.977H7.352c.01-.995.331-1.773.961-2.336.635-.562 1.5-.844 2.594-.844 1.104 0 1.961.268 2.57.805.609.531.914 1.284.914 2.258 0 .443-.099.862-.297 1.258-.198.391-.544.826-1.039 1.305l-.633.602c-.396.38-.622.825-.68 1.336l-.031.477h-2zm-.227 2.398c0-.349.117-.635.352-.859.24-.229.544-.344.914-.344s.672.115.906.344c.24.224.359.51.359.859 0 .344-.117.628-.351.852-.229.224-.534.336-.914.336s-.687-.112-.922-.336a1.14 1.14 0 0 1-.344-.852z" fill="#fff"/></svg>