<svg viewBox="0 0 94 94" fill="none" xmlns="http://www.w3.org/2000/svg">
<path opacity="0.55" fill-rule="evenodd" clip-rule="evenodd" d="M80.2522 13.7525C61.9157 -4.58358 32.0833 -4.58358 13.7511 13.7489C-4.58466 32.0822 -4.58322 61.9155 13.7525 80.2516C32.0833 98.5834 61.9157 98.5834 80.2501 80.248C98.5837 61.9155 98.5822 32.0843 80.2522 13.7525ZM75.121 75.1204C59.616 90.6258 34.3852 90.6273 18.8802 75.1226C3.37162 59.6143 3.37306 34.3826 18.8802 18.8779C34.3852 3.37398 59.6138 3.37183 75.1231 18.8794C90.6281 34.3841 90.6267 59.6158 75.121 75.1204ZM68.2611 65.5857C68.8445 66.9347 68.2231 68.4997 66.8755 69.0816C65.5272 69.6671 63.9629 69.045 63.3796 67.696C60.8157 61.7684 54.7552 57.9374 47.9399 57.9374C40.9659 57.9374 34.8688 61.7655 32.409 67.691C31.9842 68.7128 30.994 69.3306 29.9528 69.3306C29.612 69.3306 29.2676 69.2646 28.9339 69.1254C27.5777 68.5628 26.9348 67.0065 27.4981 65.651C30.7859 57.7344 38.8104 52.6197 47.9399 52.6197C56.8771 52.6211 64.8541 57.71 68.2611 65.5857ZM29.4606 34.2736C29.4606 31.2398 31.9218 28.7779 34.9571 28.7779C37.9909 28.7779 40.4521 31.2383 40.4521 34.2736C40.4521 37.3102 37.9909 39.7707 34.9571 39.7707C31.9218 39.7707 29.4606 37.3102 29.4606 34.2736ZM54.3814 34.2736C54.3814 31.2398 56.8448 28.7779 59.8793 28.7779C62.9124 28.7779 65.3751 31.2383 65.3751 34.2736C65.3751 37.3102 62.9139 39.7707 59.8793 39.7707C56.8448 39.7707 54.3814 37.3102 54.3814 34.2736Z" fill="white"/>
</svg>
