<svg xmlns="http://www.w3.org/2000/svg" viewBox="0 0 29 27" fill="none" xmlns="http://www.w3.org/2000/svg"><path d="M28.387 22.743L16.782 2.14c-.99-1.799-3.689-1.799-4.678 0L.498 22.743c-.99 1.799.27 4.048 2.339 4.048h23.121c2.159-.09 3.419-2.249 2.429-4.048z" fill="#da3b5a"/><path d="M14.442 3.49l11.606 20.602H2.837L14.442 3.49z" fill="#fff"/><path d="M12.554 12.937l.72 4.768a1.17 1.17 0 0 0 1.17.99 1.25 1.25 0 0 0 1.169-.99l.72-4.768c.18-1.17-.72-2.159-1.889-2.159s-1.979.99-1.889 2.159zm1.889 8.906a1.08 1.08 0 1 0 0-2.16 1.08 1.08 0 0 0 0 2.16z" fill="#575757"/></svg>