<svg viewBox="0 0 29 27" fill="none" xmlns="http://www.w3.org/2000/svg">
<path d="M28.3874 22.7426L16.7818 2.14048C15.7922 0.341195 13.0932 0.341195 12.1036 2.14048L0.498076 22.7426C-0.491515 24.5419 0.767994 26.791 2.83719 26.791H25.9583C28.1175 26.7011 29.377 24.5419 28.3874 22.7426Z" fill="#DA3B5A"/>
<path d="M14.4424 3.48975L26.048 24.0918H2.83691L14.4424 3.48975Z" fill="white"/>
<path d="M12.5535 12.9365L13.2732 17.7047C13.3631 18.2444 13.813 18.6943 14.4428 18.6943C14.9825 18.6943 15.5224 18.2444 15.6123 17.7047L16.332 12.9365C16.5119 11.7669 15.6123 10.7773 14.4428 10.7773C13.2731 10.7773 12.4634 11.7669 12.5535 12.9365Z" fill="#575757"/>
<path d="M14.4426 21.8428C15.0389 21.8428 15.5223 21.3595 15.5223 20.7632C15.5223 20.167 15.0389 19.6836 14.4426 19.6836C13.8464 19.6836 13.363 20.167 13.363 20.7632C13.363 21.3595 13.8464 21.8428 14.4426 21.8428Z" fill="#575757"/>
</svg>
