<svg  viewBox="0 0 28 26" fill="none" xmlns="http://www.w3.org/2000/svg">
<path d="M27.6643 21.5093L16.2926 1.32228C15.3229 -0.440759 12.6783 -0.440759 11.7086 1.32228L0.336854 21.5093C-0.632803 23.2724 0.601334 25.4762 2.62885 25.4762H25.2842C27.3998 25.3881 28.634 23.2724 27.6643 21.5093Z" fill="#36B5B2"/>
<path d="M14.0004 2.64453L25.3721 22.8316H2.62866L14.0004 2.64453Z" fill="white"/>
<path d="M12.149 11.9008L12.8543 16.5729C12.9424 17.1018 13.3832 17.5426 14.0003 17.5426C14.5292 17.5426 15.0581 17.1018 15.1463 16.5729L15.8515 11.9008C16.0278 10.7548 15.1463 9.78516 14.0003 9.78516C12.8542 9.78509 12.0608 10.7548 12.149 11.9008Z" fill="#575757"/>
<path d="M14.0005 20.6274C14.5847 20.6274 15.0583 20.1538 15.0583 19.5696C15.0583 18.9853 14.5847 18.5117 14.0005 18.5117C13.4162 18.5117 12.9426 18.9853 12.9426 19.5696C12.9426 20.1538 13.4162 20.6274 14.0005 20.6274Z" fill="#575757"/>
</svg>
