<svg xmlns="http://www.w3.org/2000/svg" viewBox="0 0 28 26" fill="none" xmlns="http://www.w3.org/2000/svg"><path d="M27.664 21.509L16.293 1.322c-.97-1.763-3.614-1.763-4.584 0L.337 21.509c-.97 1.763.264 3.967 2.292 3.967h22.655c2.116-.088 3.35-2.204 2.38-3.967z" fill="#36b5b2"/><path d="M14 2.645l11.372 20.187H2.629L14 2.645z" fill="#fff"/><path d="M12.149 11.901l.705 4.672c.088.529.529.97 1.146.97.529 0 1.058-.441 1.146-.97l.705-4.672c.176-1.146-.705-2.116-1.851-2.116s-1.939.97-1.851 2.116zm1.852 8.726a1.06 1.06 0 0 0 1.058-1.058 1.06 1.06 0 0 0-1.058-1.058 1.06 1.06 0 0 0-1.058 1.058 1.06 1.06 0 0 0 1.058 1.058z" fill="#575757"/></svg>